<svg width="49" height="49" viewBox="0 0 49 49" fill="none" xmlns="http://www.w3.org/2000/svg">
<path d="M9.54025 28.948C10.2974 28.948 10.8867 29.5322 11.244 30.1997C11.4787 30.6381 11.802 30.9533 12.2141 31.1452C12.9478 31.487 13.8283 31.6579 14.8555 31.6579C16.0784 31.6579 16.9466 31.5114 17.4602 31.2185C17.9983 30.9011 18.2673 30.4006 18.2673 29.7171C18.2673 29.2288 18.0961 28.8016 17.7537 28.4354C17.4358 28.0692 16.8121 27.8128 15.8827 27.6664L13.2413 27.2269C10.9179 26.8607 9.18139 26.2382 8.0319 25.3593C6.90685 24.456 6.34433 23.1011 6.34433 21.2945C6.34433 20.3668 6.53999 19.5367 6.93131 18.8043C7.34709 18.0719 7.92184 17.4494 8.65556 16.9367C9.38928 16.424 10.2575 16.0334 11.2603 15.7649C12.2875 15.4719 13.4125 15.3254 14.6354 15.3254C16.1518 15.3254 17.4235 15.4841 18.4508 15.8015C19.478 16.0945 20.3095 16.4973 20.9454 17.01C21.6058 17.5226 22.0949 18.133 22.4129 18.841C22.5255 19.0738 22.6275 19.3119 22.7189 19.5553C23.0278 20.3774 22.4148 21.2049 21.5436 21.3162L19.9108 21.5248C19.1408 21.6232 18.4638 21.0964 18.0362 20.4484C17.8537 20.1718 17.6372 19.9412 17.3869 19.7564C16.8488 19.3414 15.9683 19.1339 14.7455 19.1339C14.0606 19.1339 13.4859 19.1949 13.0212 19.317C12.581 19.4147 12.2263 19.5489 11.9573 19.7198C11.7127 19.8907 11.5293 20.086 11.407 20.3057C11.3092 20.5255 11.2603 20.733 11.2603 20.9283C11.2603 21.5386 11.4437 21.9903 11.8106 22.2832C12.2019 22.5518 12.9478 22.7837 14.0484 22.979L16.4697 23.3818C17.8149 23.6015 18.9277 23.8823 19.8081 24.2241C20.6886 24.5659 21.3856 24.9931 21.8992 25.5058C22.4373 25.994 22.8042 26.58 22.9998 27.2635C23.2199 27.9471 23.33 28.7405 23.33 29.6438C23.33 31.4504 22.6452 32.903 21.2756 34.0016C19.906 35.0758 17.7904 35.6129 14.9289 35.6129C13.7794 35.6129 12.6788 35.503 11.6271 35.2833C10.5999 35.088 9.67054 34.734 8.83899 34.2213C8.0319 33.7086 7.35932 33.0251 6.82125 32.1706C6.53718 31.698 6.32044 31.1582 6.17104 30.5511C5.96064 29.6962 6.68211 28.948 7.56252 28.948H9.54025Z" fill="#414344"/>
<path d="M14.6251 10.7958C17.6399 8.58027 21.3624 7.27148 25.3906 7.27148C35.4413 7.27148 43.5889 15.4191 43.5889 25.4698C43.5889 35.5204 35.4413 43.6681 25.3906 43.6681C21.3624 43.6681 17.6399 42.3593 14.6251 40.1438" stroke="#414344" stroke-width="2" stroke-linecap="round"/>
</svg>
