<svg width="48" height="48" viewBox="0 0 48 48" fill="none" xmlns="http://www.w3.org/2000/svg">
<g clip-path="url(#clip0_47_306)">
<path d="M36.533 12.3648C36.3266 12.1866 36.0756 12.068 35.8069 12.0217C35.5382 11.9755 35.262 12.0033 35.008 12.1023L11.9455 21.1648C11.6458 21.2841 11.3925 21.4968 11.2232 21.7713C11.0539 22.0459 10.9776 22.3677 11.0057 22.6891C11.0338 23.0104 11.1647 23.3141 11.379 23.5552C11.5933 23.7963 11.8796 23.9618 12.1955 24.0273L18.458 25.2898V33.0148C18.4542 33.3124 18.5405 33.6042 18.7056 33.8518C18.8707 34.0995 19.1068 34.2914 19.383 34.4023C19.5699 34.4767 19.7693 34.5149 19.9705 34.5148C20.1657 34.515 20.3591 34.4765 20.5393 34.4014C20.7196 34.3263 20.8831 34.2161 21.0205 34.0773L24.5955 30.5023L29.8705 35.1398C30.1408 35.3845 30.4934 35.5184 30.858 35.5148C31.0151 35.5144 31.1712 35.4891 31.3205 35.4398C31.5662 35.3592 31.7872 35.2169 31.9623 35.0265C32.1374 34.8361 32.2607 34.604 32.3205 34.3523L37.0205 13.8273C37.082 13.5623 37.069 13.2854 36.983 13.0273C36.897 12.7692 36.7412 12.5399 36.533 12.3648ZM11.9955 22.6023C11.9806 22.494 12.0036 22.3838 12.0605 22.2905C12.1174 22.1971 12.2049 22.1262 12.308 22.0898L33.458 13.7898L18.8455 24.3398L12.3955 23.0523C12.288 23.0329 12.1902 22.978 12.1177 22.8964C12.0452 22.8149 12.0021 22.7113 11.9955 22.6023ZM20.308 33.3648C20.2401 33.4354 20.1525 33.4839 20.0566 33.504C19.9607 33.524 19.861 33.5147 19.7705 33.4773C19.6783 33.44 19.5993 33.3761 19.5437 33.2937C19.488 33.2114 19.4582 33.1142 19.458 33.0148V25.9773L23.8455 29.8398L20.308 33.3648ZM36.0455 13.6148L31.3455 34.1273C31.3267 34.2124 31.2855 34.2909 31.2262 34.3546C31.1668 34.4184 31.0915 34.4651 31.008 34.4898C30.9273 34.5188 30.8402 34.5248 30.7563 34.5071C30.6724 34.4895 30.5951 34.4489 30.533 34.3898L19.758 24.9148L35.9705 13.2023C36.0114 13.2619 36.0392 13.3295 36.0521 13.4005C36.065 13.4716 36.0628 13.5447 36.0455 13.6148Z" fill="black"/>
</g>
<defs>
<clipPath id="clip0_47_306">
<rect width="48" height="48" fill="white"/>
</clipPath>
</defs>
</svg>
