<svg width="48" height="48" viewBox="0 0 48 48" fill="none" xmlns="http://www.w3.org/2000/svg">
<g clip-path="url(#clip0_47_311)">
<path d="M38 16.6068C37.0247 17.055 35.9928 17.3503 34.9369 17.4833C36.0466 16.7961 36.8811 15.7042 37.2839 14.4125C36.2348 15.0614 35.0888 15.5167 33.8953 15.7589C33.3926 15.2017 32.7882 14.7585 32.1185 14.4561C31.4489 14.1538 30.7282 13.9986 30.0001 14C27.0524 14 24.6669 16.4865 24.6669 19.5516C24.6648 19.9779 24.711 20.403 24.8045 20.8177C22.6907 20.7129 20.6209 20.1426 18.7275 19.1432C16.8341 18.1439 15.1587 16.7375 13.8086 15.0141C13.335 15.8586 13.0845 16.8222 13.0833 17.8042C13.0833 19.7292 14.0329 21.4307 15.4667 22.4276C14.6172 22.4063 13.7851 22.1685 13.0411 21.7344V21.8031C13.0411 24.4958 14.8828 26.7359 17.3203 27.2458C16.8619 27.375 16.3895 27.4405 15.9152 27.4406C15.5786 27.4412 15.2427 27.4067 14.9125 27.3375C15.5902 29.5432 17.5624 31.1474 19.8986 31.1932C18.0002 32.7406 15.6696 33.5769 13.2729 33.5708C12.8475 33.5701 12.4225 33.5433 12 33.4906C14.4381 35.1373 17.2723 36.0083 20.1651 35.9999C29.9888 35.9999 35.3556 27.538 35.3556 20.1989C35.3556 19.9583 35.3496 19.7177 35.3388 19.4828C36.3805 18.6991 37.2816 17.7252 38 16.6068Z" stroke="black" stroke-linejoin="round"/>
</g>
<defs>
<clipPath id="clip0_47_311">
<rect width="48" height="48" fill="white"/>
</clipPath>
</defs>
</svg>
