<svg width="1440" height="510" viewBox="0 0 1440 510" fill="none" xmlns="http://www.w3.org/2000/svg">
<g opacity="0.3">
<path d="M1493.13 477.557C1421.74 474.691 1335.22 444.349 1279.81 481.51C1257.88 496.236 1236.81 512.84 1198.73 506.416C1159.64 499.794 1131.08 478.446 1096.41 466.982C1040.15 448.5 997.313 474.098 942.071 478.051C887.849 481.906 847.226 456.703 795.214 452.75C759.349 450.081 725.864 445.93 690.51 440.791C660.254 436.344 623.88 429.722 592.775 435.553C566.769 440.495 549.261 454.133 524.785 460.656C497.929 467.772 469.713 464.807 441.838 461.447C407.843 457.395 372.148 449.093 337.134 449.291C289.371 449.587 245.688 467.377 204.554 480.126C159.001 494.358 118.377 507.997 66.1953 498.905C25.2316 491.789 -10.123 480.423 -53.1264 477.557C-53.1264 478.743 -53.1264 479.336 -53.1264 480.522C-10.293 483.091 25.0616 493.963 66.0253 500.585C117.357 508.986 157.131 496.533 202.514 483.091C243.138 470.935 285.632 454.43 332.544 454.133C367.559 453.936 402.914 461.744 436.908 465.598C464.784 468.761 493.17 471.528 520.026 464.906C544.842 458.877 563.199 445.831 589.375 441.285C620.48 435.849 656.175 441.977 686.6 446.227C721.445 451.07 754.76 455.023 790.284 457.494C842.636 461.052 884.45 484.772 938.841 481.214C993.913 477.557 1038.45 453.343 1094.54 470.737C1129.21 481.51 1157.94 501.771 1196.69 507.8C1234.43 513.73 1256.01 498.608 1279.13 484.376C1336.24 449.39 1421.91 478.051 1493.13 480.621C1493.13 479.336 1493.13 478.743 1493.13 477.557Z" fill="url(#paint0_linear_55_34)"/>
<path d="M1493.13 468.957C1447.4 466.585 1405.93 456.507 1360.89 452.555C1322.81 449.295 1303.1 455.519 1281.85 473.699C1263.32 489.607 1243.94 510.652 1204.51 502.747C1164.06 494.547 1136.35 470.142 1101.51 456.804C1044.06 434.869 1006.83 464.708 951.25 469.549C896.178 474.391 860.993 443.663 808.641 439.809C771.587 437.043 737.422 431.707 701.388 425.779C671.303 420.839 633.398 412.638 602.463 419.752C576.627 425.68 562.179 441.291 538.553 448.998C512.207 457.594 484.161 453.938 456.285 450.085C422.461 445.342 385.746 435.561 350.562 435.857C300.249 436.252 253.337 457.791 211.013 472.118C164.44 487.729 121.267 505.119 67.0452 494.053C25.4016 485.654 -9.10315 472.711 -53.1264 468.956C-53.1264 470.142 -53.1264 470.735 -53.1264 471.92C-9.44309 475.28 25.4016 487.729 66.7052 495.732C120.247 506.008 162.571 490.002 208.633 474.885C250.447 461.151 296.34 440.896 345.632 440.501C380.817 440.204 417.192 449.492 451.016 453.938C478.892 457.594 507.108 461.052 533.624 452.95C557.59 445.639 573.058 430.719 598.894 425.186C629.829 418.468 667.223 426.174 697.309 430.917C733.173 436.648 767.168 441.094 803.712 444.255C855.384 448.8 893.628 476.861 947.85 472.415C1003.26 467.87 1042.53 439.513 1099.47 460.262C1134.31 473.007 1162.36 496.325 1202.3 503.933C1241.23 511.343 1261.11 491.879 1281 476.367C1303.27 458.879 1323.66 453.247 1361.06 456.31C1405.93 459.965 1447.4 469.747 1492.96 471.822C1493.13 470.735 1493.13 470.142 1493.13 468.957Z" fill="url(#paint1_linear_55_34)"/>
<path d="M1493.13 460.458C1446.72 457.586 1405.59 446.198 1360.04 441.643C1320.09 437.683 1302.25 445.901 1283.72 466.003C1268.25 482.638 1250.91 508.681 1210.12 499.175C1168.48 489.471 1141.62 462.042 1106.44 446.693C1047.96 421.146 1016.01 455.308 960.088 461.052C904.847 466.795 873.572 431.543 821.73 426.889C783.655 423.423 748.811 417.482 711.756 410.749C682.011 405.302 642.407 395.598 611.642 403.916C585.976 410.947 574.587 428.374 551.641 437.286C525.805 447.287 497.929 443.03 469.883 438.574C436.229 433.226 398.664 422.037 363.14 422.334C310.448 422.829 259.966 448.179 216.792 463.923C170.049 480.955 123.816 502.145 67.7251 489.174C25.7415 479.568 -8.0833 465.012 -53.1264 460.457C-53.1264 461.646 -53.1264 462.24 -53.1264 463.428C-8.42325 467.686 25.7415 481.747 67.5551 490.956C123.137 503.235 168.18 483.331 214.923 466.795C257.756 451.545 307.048 427.483 358.89 426.988C394.415 426.691 431.639 437.385 465.294 442.534C493.34 446.792 521.216 450.852 547.222 441.346C570.508 432.83 582.916 415.997 608.582 409.362C639.347 401.441 678.441 410.65 708.187 415.898C744.901 422.433 779.406 428.077 817.14 431.345C869.152 435.801 901.787 469.369 957.029 464.022C1012.95 458.576 1046.6 425.899 1104.74 450.258C1139.92 464.913 1166.95 491.352 1208.25 500.561C1248.53 509.572 1266.55 485.213 1283.04 468.775C1302.59 449.268 1321.11 441.742 1360.38 445.505C1405.76 449.862 1446.89 460.854 1493.13 463.527C1493.13 462.24 1493.13 461.646 1493.13 460.458Z" fill="url(#paint2_linear_55_34)"/>
<path d="M1493.13 451.983C1446.04 448.716 1405.42 435.945 1359.19 430.896C1317.37 426.243 1301.57 436.737 1285.42 458.22C1272.84 475.05 1257.71 506.334 1215.39 495.246C1172.56 484.059 1146.38 453.765 1111.03 436.638C1051.36 407.729 1024.51 445.845 968.417 452.577C913.005 459.21 885.3 419.709 834.138 414.263C795.044 410.105 759.519 403.67 721.785 396.146C692.549 390.305 650.906 379.118 620.65 388.523C595.154 396.542 586.656 415.748 564.389 425.847C539.233 437.133 511.357 432.282 483.141 427.332C449.657 421.49 411.072 408.818 375.378 409.214C320.646 409.709 266.765 438.816 222.571 455.745C175.489 473.862 126.026 498.909 68.405 484.059C26.0815 473.169 -7.06346 457.23 -53.1264 451.884C-53.1264 453.072 -53.1264 453.666 -53.1264 454.854C-7.40341 459.903 26.0814 475.446 68.235 485.841C125.346 499.998 173.789 476.337 220.702 458.616C264.555 442.083 317.247 414.263 371.299 413.768C406.993 413.471 445.067 425.55 478.722 431.292C506.938 436.044 534.644 440.697 560.14 429.807C582.746 420.203 592.095 401.492 617.591 393.869C648.016 384.761 688.98 395.453 718.385 401.195C755.95 408.422 791.134 414.758 829.888 418.62C881.22 423.768 910.286 461.784 965.527 455.547C1021.62 449.211 1050.17 412.382 1109.5 440.202C1144.85 456.735 1171.2 486.039 1213.69 496.731C1255.5 507.225 1271.31 477.822 1284.91 460.992C1301.91 439.905 1318.39 430.302 1359.53 434.658C1405.42 439.509 1446.21 451.785 1493.13 454.953C1493.13 453.765 1493.13 453.171 1493.13 451.983Z" fill="url(#paint3_linear_55_34)"/>
<path d="M1493.13 443.88C1445.36 440.216 1405.08 426.35 1358.51 420.704C1314.82 415.455 1300.89 428.132 1287.12 450.714C1276.92 467.453 1264 503.802 1220.32 491.422C1176.3 478.843 1150.8 445.861 1115.27 427.043C1054.59 394.952 1031.99 436.947 976.066 444.475C920.484 451.903 896.008 408.422 845.356 402.381C805.412 397.626 769.208 390.693 730.623 382.473C701.558 376.332 658.385 363.654 628.469 374.153C602.973 383.067 597.534 403.965 575.777 415.058C551.301 427.637 523.425 422.09 495.04 416.742C461.555 410.403 422.461 396.537 386.426 396.834C329.825 397.329 272.714 429.915 227.671 448.04C180.588 467.057 127.896 495.68 68.9149 479.14C26.4214 467.156 -6.21359 449.823 -53.1264 443.781C-53.1264 444.97 -53.1264 445.564 -53.1264 446.752C-6.55354 452.596 26.2514 469.533 68.7449 481.022C127.216 497.067 178.888 469.731 225.971 451.011C270.674 433.282 326.765 401.885 382.687 401.39C418.721 401.093 457.645 414.563 491.13 420.704C519.346 425.953 547.222 431.203 572.038 419.02C593.964 408.323 600.423 387.92 625.92 379.303C656.005 369.102 698.668 381.284 727.734 387.326C765.978 395.348 802.013 402.084 841.616 406.64C892.439 412.483 917.935 454.577 973.516 447.446C1029.61 440.216 1053.57 399.508 1113.91 430.509C1149.44 448.734 1175.11 480.824 1218.62 492.907C1261.79 504.892 1275.39 470.226 1286.44 453.488C1301.06 431.203 1315.5 419.317 1358.68 424.369C1405.08 429.816 1445.53 443.286 1492.96 446.852C1493.13 445.663 1493.13 445.069 1493.13 443.88Z" fill="url(#paint4_linear_55_34)"/>
<path d="M1493.13 435.253C1444.66 431.194 1404.87 416.346 1357.77 410.308C1338.72 407.833 1323.07 404.765 1307.94 414.664C1297.23 421.692 1292.81 433.966 1288.38 442.677C1280.05 459.208 1269.34 500.189 1224.45 486.528C1179.38 472.868 1154.55 437.332 1118.84 417.138C1057.28 382.196 1038.24 427.829 982.462 435.946C926.516 444.162 904.919 397.044 854.754 390.61C813.942 385.363 777.381 378.038 738.099 369.129C709.36 362.695 664.637 348.837 634.878 360.22C609.2 370.02 606.479 392.292 585.223 404.369C561.245 417.93 533.187 411.991 504.788 406.151C471.458 399.419 431.666 384.373 395.275 384.67C336.948 385.165 276.92 420.702 231.346 439.806C184.412 459.505 128.805 491.379 68.777 473.363C25.9241 460.494 -6.04554 441.786 -54 435.253C-54 436.441 -54 437.034 -54 438.222C-6.38564 444.657 25.754 462.87 68.607 475.442C128.295 492.962 182.881 462.177 229.986 442.677C275.389 423.869 334.567 389.323 392.214 388.828C428.435 388.531 468.057 403.181 501.387 409.714C529.786 415.356 557.674 421.098 581.992 407.932C603.418 396.252 606.989 374.376 632.667 364.873C662.426 353.786 706.809 367.249 735.548 373.584C774.66 382.196 811.051 389.422 851.523 394.47C901.858 400.805 924.475 446.636 980.252 438.717C1036.03 430.798 1056.26 386.353 1117.65 420.405C1153.19 440.103 1178.36 474.749 1223.08 488.112C1267.47 501.376 1279.03 461.98 1287.87 445.35C1300.29 422.187 1313.04 408.031 1357.94 413.773C1404.87 419.712 1444.83 434.164 1492.96 438.124C1493.13 437.035 1493.13 436.441 1493.13 435.253Z" fill="url(#paint5_linear_55_34)"/>
<path d="M1493.13 426.598C1444.17 422.345 1404.74 406.615 1357.32 400.185C1338.11 397.613 1322.47 394.349 1307.86 404.736C1297.15 412.254 1293.58 425.312 1289.67 434.413C1282.7 450.637 1274.2 495.45 1228.14 480.908C1182.07 466.366 1157.94 428.577 1122.24 407.308C1060.03 370.112 1043.55 418.684 988.474 427.39C932.213 436.194 913.346 386.138 863.373 379.411C821.9 373.871 784.845 366.056 745.071 356.658C716.686 350.03 670.453 335.191 641.047 347.161C615.211 357.647 615.041 381.191 594.135 393.953C570.678 408.198 542.462 401.867 514.077 395.832C480.762 388.71 440.648 372.783 403.934 373.079C344.273 373.574 282.062 411.66 235.829 431.544C188.577 451.725 130.616 486.25 69.9349 467.059C26.7615 453.407 -4.51373 433.622 -53.1263 426.598C-53.1263 427.785 -53.1263 428.379 -53.1263 429.566C-4.6837 436.392 26.7615 455.781 69.7649 469.235C130.276 488.13 187.387 454.396 234.47 434.314C280.533 414.727 342.063 377.432 401.214 376.938C437.758 376.641 477.872 392.271 511.017 399.295C539.403 405.23 567.619 411.463 591.245 397.415C612.322 384.852 613.342 361.703 639.178 351.514C668.583 339.742 714.476 354.284 742.862 360.813C782.466 370.013 819.35 377.63 860.654 383.071C910.626 389.699 930.513 438.865 986.604 430.258C1042.02 421.751 1059.18 374.168 1121.22 410.671C1156.92 431.643 1181.39 468.642 1227.12 482.887C1272.84 497.132 1282.02 453.506 1289.33 437.282C1293.41 428.28 1297.32 415.519 1307.86 408.099C1322.64 397.811 1338.28 400.977 1357.49 403.549C1404.74 409.88 1444.34 425.312 1493.13 429.467C1493.13 428.379 1493.13 427.785 1493.13 426.598Z" fill="url(#paint6_linear_55_34)"/>
<path d="M1493.49 418.066C1444 413.703 1405.06 397.242 1357.28 390.4C1338.23 387.722 1322.25 384.351 1307.79 394.961C1297.08 402.795 1294.19 416.678 1290.79 426.098C1284.84 442.064 1278.2 490.059 1230.93 474.887C1184.17 459.814 1160.36 419.95 1124.65 397.738C1061.9 358.767 1047.11 409.935 992.689 418.959C935.722 428.379 919.567 375.624 869.232 368.782C827.059 363.031 789.988 354.899 749.686 345.082C721.627 338.24 674.353 322.671 645.104 335.067C619.086 346.074 620.957 370.765 600.211 384.152C577.254 398.928 548.515 392.284 520.117 386.036C486.786 378.599 446.484 361.94 409.583 362.237C348.875 362.634 284.936 402.795 238.342 423.223C191.407 443.848 131.549 480.44 70.3309 460.309C26.9679 446.03 -3.64136 425.206 -53.1263 418.066C-53.1263 419.256 -53.1263 419.851 -53.1263 420.942C-3.98146 428.081 26.9679 448.509 70.3309 462.689C131.379 482.621 190.727 446.526 237.661 426.098C284.085 405.77 347.685 366.204 408.053 365.807C444.954 365.51 485.256 381.971 518.586 389.309C546.985 395.556 575.553 402.101 598.68 387.425C619.426 374.236 618.236 349.842 644.254 339.033C673.503 326.737 720.437 342.107 748.665 348.949C788.797 358.568 825.869 366.7 867.871 372.352C918.036 379.194 935.042 431.156 991.839 421.834C1046.6 412.91 1061.73 362.535 1124.48 401.01C1160.19 423.024 1184.17 462.194 1230.76 477.167C1277.69 492.24 1285.01 445.138 1291.13 429.073C1294.7 419.752 1297.93 406.167 1308.47 398.333C1322.93 387.722 1338.91 390.995 1357.96 393.672C1405.57 400.316 1444.69 416.678 1494 420.942C1493.49 419.851 1493.49 419.256 1493.49 418.066Z" fill="url(#paint7_linear_55_34)"/>
<path d="M1493.66 409.7C1443.66 405.439 1405.23 388.295 1357.28 381.457C1338.4 378.781 1321.91 375.312 1307.62 385.916C1296.91 393.844 1294.53 408.412 1291.3 417.926C1286.03 433.881 1280.93 483.431 1232.46 468.071C1185.02 453.008 1161.55 411.286 1125.84 388.691C1103.05 374.222 1078.05 368.078 1050.17 381.754C1030.95 391.169 1020.75 406.43 994.899 410.791C936.742 420.601 923.308 366.195 872.293 359.555C829.61 354.006 792.539 345.384 752.066 335.276C724.348 328.339 676.224 312.383 646.975 324.87C620.787 336.068 623.338 361.438 603.612 375.411C582.015 390.772 550.726 383.439 523.518 377.195C490.017 369.564 449.885 352.519 412.644 352.717C351.086 353.015 286.466 394.241 239.532 415.151C192.938 435.962 132.06 473.719 70.501 453.007C26.9679 438.34 -2.96115 416.736 -53.1263 409.7C-53.1263 410.889 -53.1263 411.484 -53.1263 412.574C-3.1312 419.709 26.9679 441.016 70.501 455.584C131.889 476.098 192.598 438.638 239.362 417.926C286.126 397.114 350.575 356.186 411.964 355.889C449.035 355.69 489.337 372.637 522.837 380.168C550.216 386.412 581.165 393.646 602.931 378.384C622.657 364.51 620.787 339.339 646.805 328.239C676.053 315.753 723.838 331.708 751.726 338.546C792.199 348.555 829.27 356.979 871.782 362.627C922.458 369.366 936.912 423.277 994.56 413.565C1048.47 404.547 1062.92 352.123 1125.84 391.763C1161.55 414.259 1185.19 455.386 1232.29 470.548C1280.42 485.909 1286.03 436.755 1291.47 420.8C1294.7 411.286 1297.25 397.016 1307.96 389.087C1322.25 378.385 1338.57 381.853 1357.62 384.529C1405.57 391.367 1444.17 408.313 1494 412.674C1493.66 411.385 1493.66 410.89 1493.66 409.7Z" fill="url(#paint8_linear_55_34)"/>
<path d="M1493.13 401.461C1443.3 397.203 1404.87 380.173 1356.75 373.243C1337.87 370.47 1321.2 367.104 1306.92 377.698C1296.21 385.619 1293.83 400.075 1290.77 409.58C1285.66 425.52 1280.73 475.026 1231.93 459.58C1184.48 444.531 1161.19 402.847 1125.48 380.272C1102.69 365.817 1077.52 359.678 1049.8 373.342C1030.59 382.748 1020.38 398.094 994.536 402.352C936.038 412.154 923.625 357.599 872.099 351.163C829.076 345.816 792.345 337.004 751.533 326.707C723.644 319.678 675.69 303.638 646.441 316.311C620.423 327.598 622.974 352.945 603.248 366.906C581.652 382.252 550.192 374.827 522.984 368.688C489.484 361.064 449.692 344.133 412.281 344.232C350.382 344.331 285.762 385.916 238.828 406.906C192.404 427.798 131.356 465.719 69.7973 444.926C26.0942 430.174 -3.49477 408.292 -54 401.461C-54 402.649 -54 403.243 -54 404.332C-3.49477 411.164 26.0942 433.144 69.7973 447.798C131.356 468.59 192.404 430.57 238.828 409.778C285.762 388.787 350.382 347.302 412.281 347.104C449.692 347.005 489.654 364.034 523.154 371.757C550.192 377.995 581.822 385.322 603.418 370.074C623.314 356.015 620.253 330.371 646.441 319.182C675.69 306.707 723.985 322.747 751.703 329.678C792.345 339.876 829.246 348.688 872.099 354.034C923.795 360.47 935.698 415.322 994.706 405.421C1020.55 401.065 1030.59 385.718 1049.63 376.213C1077.18 362.45 1102.69 368.589 1125.31 383.045C1161.02 405.718 1184.31 447.996 1231.93 462.947C1280.9 478.293 1285.49 428.491 1290.6 412.55C1293.66 403.045 1295.87 388.292 1306.58 380.371C1320.86 369.876 1337.7 373.342 1356.41 376.015C1404.53 382.946 1442.79 400.273 1492.96 404.431C1493.13 403.243 1493.13 402.649 1493.13 401.461Z" fill="url(#paint9_linear_55_34)"/>
<path d="M1493.13 393.063C1444.17 388.605 1405.25 372.557 1357.83 365.919C1338.62 363.244 1322.47 359.876 1308.02 370.575C1297.66 378.401 1294.94 391.973 1291.71 401.286C1286.1 417.334 1279.98 464.786 1232.56 449.431C1185.98 434.472 1162.53 394.846 1127.17 372.755C1064.28 333.624 1049.49 385.039 994.933 393.955C937.312 403.366 923.544 350.564 872.552 344.323C828.868 338.973 792.324 329.76 751.19 318.962C722.975 311.532 675.722 295.385 645.807 308.263C619.801 319.457 622.35 344.026 601.783 357.499C579.007 372.358 549.941 365.721 521.726 359.381C488.411 351.951 449.317 335.605 412.432 335.605C350.562 335.605 286.312 377.212 239.569 398.313C193.166 419.315 132.655 457.059 70.9547 436.354C27.1014 421.792 -2.81399 399.898 -53.1263 393.063C-53.1263 394.252 -53.1263 394.846 -53.1263 395.936C-2.81399 402.771 27.1014 424.665 70.6147 439.326C132.315 460.13 192.996 422.287 239.399 401.285C286.142 380.184 350.562 338.577 412.432 338.577C449.487 338.577 488.921 355.121 522.235 362.65C550.451 368.99 579.687 375.727 602.463 360.867C623.2 347.295 620.14 322.33 646.147 311.136C675.892 298.257 723.315 314.405 751.36 321.637C792.324 332.237 829.038 341.252 872.382 346.601C923.544 352.942 936.802 406.536 994.763 396.927C1048.98 387.912 1063.6 335.902 1126.49 375.429C1162.02 397.719 1185.47 438.138 1232.39 453.196C1280.32 468.551 1285.93 420.306 1291.37 404.258C1294.6 394.846 1297.15 380.977 1307.69 373.052C1322.13 362.254 1338.45 365.622 1357.49 368.396C1405.08 375.132 1443.83 391.577 1493.13 395.936C1493.13 394.846 1493.13 394.252 1493.13 393.063Z" fill="url(#paint10_linear_55_34)"/>
<path d="M1493.13 384.267C1445.35 380.003 1405.9 365.13 1359.48 358.983C1340.27 356.405 1324.28 353.133 1309.66 363.643C1299.46 370.98 1296.4 383.573 1292.83 392.496C1286.54 408.856 1279.23 452.384 1232.98 437.709C1187.58 423.332 1164.11 386.051 1128.92 364.932C1066.51 327.453 1049.85 376.632 994.421 385.258C937.97 394.083 922.327 344.408 871.997 338.359C827.449 332.906 790.552 322.892 748.894 311.588C720.158 303.755 673.399 287.098 642.453 300.087C616.949 310.795 617.629 334.294 597.055 347.184C574.1 361.561 545.365 355.215 517.309 349.167C484.493 342.028 446.236 326.56 410.019 326.56C348.127 326.659 284.705 368.105 238.116 389.323C191.697 410.542 132.016 448.12 70.1238 427.497C26.4254 412.921 -3.67035 391.207 -54 384.366C-54 385.555 -54 386.051 -54 387.241C-3.67035 394.083 26.4254 415.896 69.9537 430.471C131.846 451.194 191.867 413.516 238.286 392.397C284.875 371.179 348.637 329.634 410.529 329.634C446.916 329.634 485.513 345.399 518.5 352.637C546.725 358.884 575.461 365.329 598.415 350.753C619.159 337.665 617.629 313.77 643.304 302.863C673.909 289.874 720.838 306.333 749.404 314.067C790.892 325.271 827.619 334.889 871.827 340.342C922.327 346.49 937.29 397.355 994.251 388.332C1049.34 379.607 1065.32 329.535 1127.9 367.708C1163.26 389.224 1186.73 427.299 1232.47 441.973C1279.06 456.945 1286.03 411.831 1291.98 395.57C1295.38 386.547 1298.27 373.558 1308.64 366.023C1323.26 355.314 1339.25 358.686 1358.46 361.264C1405.22 367.609 1444.5 382.879 1492.79 387.241C1493.13 385.952 1493.13 385.357 1493.13 384.267Z" fill="url(#paint11_linear_55_34)"/>
<path d="M1493.13 375.833C1446.72 371.876 1407.12 358.62 1361.91 353.08C1318.05 347.738 1305.31 360.697 1294.94 383.846C1287.63 400.367 1278.79 438.652 1234.43 425.099C1190.57 411.744 1166.78 377.218 1132.1 357.532C1070.74 322.61 1050.51 368.71 994.933 376.822C939.862 384.835 921.844 339.725 872.552 333.888C826.829 328.447 789.435 317.268 747.111 305.1C718.045 296.79 671.473 279.379 639.178 292.24C614.021 302.231 612.832 324.391 592.095 336.559C568.808 350.112 540.763 344.275 512.887 338.537C480.762 331.909 443.538 317.466 408.523 317.565C346.822 317.763 284.272 359.015 238.209 380.285C191.976 401.653 133.335 438.948 71.2946 418.47C27.6113 404.027 -2.81399 382.56 -53.1263 375.734C-53.1263 376.921 -53.1263 377.416 -53.1263 378.603C-2.81399 385.429 27.4414 406.995 71.1247 421.438C132.995 441.916 192.146 404.522 238.379 383.351C284.612 362.082 347.502 320.731 409.203 320.632C444.727 320.533 482.292 335.273 514.587 342.198C542.462 348.133 570.848 354.069 593.965 340.219C614.701 327.853 615.211 305.199 640.367 294.911C672.153 282.05 718.725 299.066 747.621 307.277C789.605 319.148 826.829 329.832 872.212 335.273C921.844 341.209 939.012 387.902 994.593 379.592C1050.17 371.381 1069.04 324.193 1130.74 360.005C1165.59 380.186 1189.21 415.602 1233.75 429.353C1278.79 443.301 1287.12 403.137 1293.92 386.616C1297.49 378.108 1300.89 366.336 1310.91 359.411C1325.53 349.321 1341.68 352.486 1360.72 354.861C1406.44 360.598 1445.87 374.448 1492.79 378.603C1493.13 377.614 1493.13 377.02 1493.13 375.833Z" fill="url(#paint12_linear_55_34)"/>
<path d="M1493.13 367.803C1448.06 364.338 1408.61 352.755 1364.57 348.003C1323.42 343.548 1308.79 353.448 1297.23 375.525C1288.55 392.157 1278.18 424.331 1235.84 412.253C1193.5 400.176 1169.69 368.694 1135.51 350.676C1075.14 318.798 1050.65 361.467 994.876 368.892C941.65 375.921 920.394 336.321 872.099 330.678C824.995 325.233 786.563 312.363 743.881 299.493C714.292 290.584 667.698 272.269 634.027 284.743C609.2 293.85 605.799 314.739 584.883 325.926C561.416 338.499 533.697 333.252 506.319 327.906C475.029 321.768 439.149 308.601 405.138 308.799C343.75 309.294 282.191 350.379 236.618 371.763C190.704 393.344 132.886 430.37 70.8176 410.075C26.9444 395.819 -3.66482 374.436 -54 367.803C-54 368.991 -54 369.486 -54 370.674C-3.83487 377.406 26.7743 398.789 70.6476 413.144C132.716 433.439 190.874 396.314 236.958 374.832C282.701 353.448 344.6 312.264 406.159 311.967C440.509 311.769 476.9 325.431 508.53 331.668C536.078 337.212 563.966 342.657 587.263 329.688C608.01 318.105 610.73 296.82 635.558 287.416C668.718 274.843 715.312 292.762 744.731 301.473C787.244 314.145 825.335 326.322 871.929 331.866C920.564 337.608 940.63 379.188 994.536 371.763C1050.31 364.14 1073.27 320.184 1133.98 353.151C1168.33 371.763 1192.14 404.334 1234.99 416.807C1278.18 429.38 1287.87 395.028 1296.04 378.495C1307.09 355.923 1321.2 345.033 1363.21 349.785C1407.76 354.834 1447.21 367.011 1492.79 370.674C1493.13 369.486 1493.13 368.991 1493.13 367.803Z" fill="url(#paint13_linear_55_34)"/>
<path d="M1493.13 359.115C1449.76 356.338 1410.48 346.619 1367.63 342.751C1329.88 339.28 1313.04 346.024 1299.78 366.552C1289.23 383.114 1277.16 408.502 1237.37 398.188C1196.9 387.676 1172.75 359.412 1139.42 343.346C1080.41 314.884 1050.65 353.858 994.876 360.503C943.861 366.552 918.693 333.033 871.929 327.777C823.465 322.322 783.673 307.446 740.48 293.662C710.21 284.042 663.786 264.803 628.246 276.604C603.758 284.835 597.977 304.075 577.06 314.289C553.593 325.694 526.215 321.033 499.347 316.173C468.908 310.719 434.557 298.719 401.908 299.215C340.859 300.108 280.661 340.966 235.597 362.486C189.854 384.304 133.397 421.096 71.1579 401.064C27.1146 386.882 -3.83475 365.759 -53.9999 359.114C-53.9999 360.304 -53.9999 360.8 -53.9999 361.99C-3.83475 368.635 27.1146 389.857 70.9878 404.039C133.227 424.17 190.024 387.18 235.767 365.461C281.001 343.941 341.709 302.984 402.928 302.29C436.088 301.893 470.948 314.289 501.728 319.942C528.766 325 556.314 329.76 579.781 317.959C600.697 307.446 605.629 287.612 630.286 279.084C665.147 266.985 711.741 285.926 741.67 295.348C784.693 308.835 823.975 323.016 871.929 328.471C919.373 333.826 943.011 369.527 994.876 363.181C1050.65 356.338 1078.54 315.975 1138.06 345.627C1171.73 362.387 1195.71 391.841 1236.86 402.849C1277.67 413.758 1289.06 386.089 1298.93 369.428C1311.51 348.305 1327.67 340.47 1366.61 344.338C1409.8 348.602 1449.25 358.916 1493.13 361.991C1493.13 360.801 1493.13 360.205 1493.13 359.115Z" fill="url(#paint14_linear_55_34)"/>
<path d="M1493.49 350.417C1451.83 348.333 1412.72 340.79 1371.56 337.714C1336.19 335.133 1320.04 339.401 1303.37 357.364C1289.09 372.747 1278.03 392 1239.94 383.366C1201.34 374.632 1177.19 349.722 1144.54 335.828C1086.73 311.116 1051.19 346.05 995.92 351.905C947.625 356.967 917.696 329.972 872.633 325.209C822.638 319.849 781.315 302.581 737.782 287.992C706.833 277.671 660.409 257.425 622.998 268.441C598.68 275.587 590.688 293.252 569.431 302.283C545.964 312.307 518.756 308.436 492.568 304.169C463.319 299.306 430.329 288.885 399.21 289.58C338.502 290.87 279.834 331.461 235.281 353.096C189.877 375.128 134.78 411.65 72.5416 391.901C28.4983 377.907 -2.7911 356.967 -53.1263 350.516C-53.1263 351.607 -53.1263 352.203 -53.1263 353.394C-2.96116 359.944 28.3283 380.984 72.3715 394.977C134.61 414.826 190.217 378.205 235.621 356.173C280.344 334.538 339.522 293.947 400.4 292.756C432.03 292.16 465.53 303.176 495.119 308.139C521.477 312.605 548.685 316.773 572.322 306.253C593.579 296.825 600.891 278.564 625.208 271.121C661.939 259.807 708.363 279.656 739.143 289.779C782.506 304.07 823.318 320.544 872.803 325.903C918.547 330.866 946.775 360.143 996.09 354.684C1051.53 348.63 1085.03 312.307 1143.35 338.309C1176.17 352.997 1200.32 378.999 1239.6 388.427C1278.72 397.756 1289.26 376.22 1302.69 360.54C1318.85 341.783 1334.15 336.523 1370.88 339.401C1412.72 342.775 1451.83 351.012 1494 353.394C1493.49 352.203 1493.49 351.608 1493.49 350.417Z" fill="url(#paint15_linear_55_34)"/>
<path d="M1492.96 342.114C1436.53 340.33 1344.91 317.428 1305.99 348.658C1288.82 362.438 1276.07 375.228 1241.4 368.684C1204.85 361.744 1180.54 340.528 1148.76 328.829C1091.99 308.109 1050.68 338.743 995.783 343.701C950.4 347.765 915.385 327.64 872.042 323.376C820.88 318.32 777.026 298.293 733.513 282.926C701.728 271.723 655.665 250.804 616.061 260.719C592.095 266.766 581.386 282.629 559.97 290.461C536.513 299.087 509.657 295.914 484.161 292.246C455.946 288.181 424.67 279.159 395.095 280.15C334.754 282.034 277.643 322.087 233.79 343.8C188.747 366.007 135.205 402.293 72.8243 382.862C28.6311 369.081 -2.98402 348.36 -53.1263 342.015C-53.1263 343.106 -53.1263 343.7 -53.1263 344.89C-2.98402 351.235 28.4612 372.055 72.6544 385.935C135.035 405.466 189.087 369.18 234.3 346.972C278.493 325.26 336.114 285.107 396.455 283.422C426.54 282.629 458.325 292.047 486.881 296.41C512.547 300.276 539.573 303.647 563.029 294.625C584.446 286.396 594.304 269.84 618.271 263.495C657.195 253.184 703.258 273.904 734.873 284.81C778.386 299.88 821.39 318.915 872.212 324.07C916.065 328.532 949.38 350.938 995.783 346.576C1050.85 341.42 1090.12 309.199 1147.4 331.308C1179.35 343.701 1203.83 366.206 1240.89 373.741C1276.75 381.077 1288.82 366.206 1305.14 351.731C1323.15 335.67 1341 333.092 1373.63 334.976C1413.92 337.356 1452.67 343.502 1493.13 344.99C1492.96 343.8 1492.96 343.205 1492.96 342.114Z" fill="url(#paint16_linear_55_34)"/>
<path d="M1493.13 333.683C1439.24 332.89 1352.71 316.836 1309.36 339.827C1250.21 371.142 1210.94 338.935 1153.82 321.791C1097.55 304.945 1050.98 331.304 996.238 335.466C953.74 338.737 913.452 325.458 872.144 321.692C819.786 317.034 773.208 293.945 729.86 277.99C696.881 265.9 651.323 244.297 609.505 253.018C585.876 257.972 572.616 272.044 550.857 278.684C527.568 285.819 500.88 283.44 476.061 280.368C449.032 277.098 419.453 269.567 391.404 270.756C331.397 273.233 276.149 312.773 232.631 334.674C187.923 357.169 135.735 393.042 73.3482 373.916C28.9801 360.34 -2.97851 339.827 -53.1263 333.683C-53.1263 334.773 -53.1263 335.367 -53.1263 336.457C-2.97851 342.7 28.8101 363.214 73.1782 376.889C135.565 396.114 188.263 360.142 233.141 337.746C276.829 315.944 332.757 276.206 392.764 273.927C421.323 272.837 451.412 280.864 478.781 284.332C503.769 287.602 530.458 290.179 553.917 282.548C575.506 275.513 587.916 260.846 611.715 255.495C652.853 246.378 698.581 267.783 731.05 279.477C774.568 295.233 820.126 317.233 872.144 322.088C914.132 325.953 952.55 341.511 996.068 338.043C1050.81 333.584 1095.85 305.836 1152.12 323.971C1183.23 333.98 1207.88 352.709 1242.9 358.457C1275.03 363.709 1288.97 354.592 1308.17 342.502C1349.31 316.638 1439.07 335.169 1493.13 336.259C1493.13 335.367 1493.13 334.773 1493.13 333.683Z" fill="url(#paint17_linear_55_34)"/>
<path d="M1493.13 325.208C1438.73 325.505 1362.08 316.285 1312.61 330.859C1250.23 349.2 1216.58 326.992 1158.62 314.699C1101.34 302.504 1052.38 323.721 996.633 327.29C956.349 329.867 911.986 323.324 872.212 320.151C818.84 315.888 769.208 289.517 726.034 273.06C691.699 259.973 646.996 238.063 602.803 245.3C579.347 249.167 563.709 261.361 541.613 266.814C518.326 272.564 491.98 270.779 467.844 268.4C442.178 265.921 413.962 259.973 387.616 261.361C327.955 264.434 274.413 303.496 231.41 325.505C187.217 348.208 136.395 383.8 73.8442 364.963C29.311 351.579 -2.98402 331.255 -53.1263 325.207C-53.1263 326.298 -53.1263 326.893 -53.1263 327.983C-2.98402 334.031 29.1411 354.454 73.6742 367.838C136.225 386.774 187.387 351.083 231.75 328.38C274.753 306.371 328.975 267.21 388.806 264.335C415.662 263.046 444.387 269.491 470.393 272.266C494.87 274.844 521.216 276.827 544.502 270.581C566.429 264.732 581.386 251.943 604.843 247.68C648.186 239.848 693.229 261.758 727.054 274.547C770.397 290.806 819.01 316.087 871.872 320.548C912.156 323.919 955.329 332.643 996.293 329.867C1051.53 326.1 1100.15 303.099 1156.92 316.88C1214.71 330.958 1249.55 356.239 1311.42 333.635C1358.85 316.285 1439.07 327.785 1493.13 327.885C1493.13 326.893 1493.13 326.397 1493.13 325.208Z" fill="url(#paint18_linear_55_34)"/>
<path d="M1493.83 316.626C1436.01 318.015 1373.26 316.527 1316.3 321.784C1293.51 323.868 1271.57 325.157 1248.28 323.669C1218.01 321.685 1192.67 311.567 1163.76 307.401C1106.28 299.068 1053.57 315.932 997.28 318.808C958.338 320.792 911.234 320.693 872.463 318.015C818.386 314.344 765.33 284.485 722.647 267.621C686.937 253.535 643.063 231.414 596.64 237.167C573.172 240.044 555.317 250.361 532.87 254.626C509.743 259.09 483.725 257.801 459.918 256.214C435.431 254.527 408.733 250.063 383.905 251.551C324.558 255.321 272.692 293.711 230.179 315.932C186.306 338.946 136.821 374.162 74.242 355.71C29.6886 342.616 -2.96122 322.578 -53.1263 316.626C-53.1263 317.717 -53.1263 318.312 -53.1263 319.403C-2.96122 325.355 29.5186 345.493 74.242 358.786C136.821 377.435 186.646 342.021 230.689 319.106C273.372 296.984 325.748 258.297 385.266 254.726C410.433 253.238 437.812 258.297 462.639 260.181C486.616 261.967 512.634 263.455 535.761 258.594C558.038 253.932 575.213 243.02 598.68 239.746C644.424 233.497 688.467 255.519 723.838 269.308C766.691 286.073 818.726 314.741 872.463 318.61C911.574 321.487 957.998 323.669 997.28 321.487C1053.4 318.312 1104.92 300.06 1162.4 309.682C1191.82 314.642 1216.82 326.05 1247.77 328.53C1271.91 330.415 1292.66 328.332 1315.45 324.76C1370.03 316.229 1437.37 320.396 1494 319.404C1493.83 318.313 1493.83 317.717 1493.83 316.626Z" fill="url(#paint19_linear_55_34)"/>
<path d="M1493.13 308.698C1433.47 311.172 1378.56 318.693 1318.73 313.448C1295.62 311.469 1273.18 310.183 1249.72 309.688C1221.51 309.094 1195.5 302.86 1167.8 300.782C1070.06 293.361 970.287 322.057 872.042 316.318C817.48 313.151 761.049 280.2 718.725 262.982C681.501 247.843 638.838 225.974 590.225 230.13C566.769 232.208 546.882 240.52 524.105 243.785C500.989 247.15 475.663 246.16 452.206 245.27C429.09 244.379 403.594 241.213 380.307 242.994C321.326 247.348 271.014 285.147 229.03 307.412C185.517 330.567 137.414 365.398 74.6941 347.289C29.9909 334.327 -2.98402 314.536 -53.1263 308.698C-53.1263 309.787 -53.1263 310.38 -53.1263 311.469C-2.98403 317.307 29.8209 337.196 74.5241 350.258C137.244 368.564 185.687 333.535 229.37 310.479C271.524 288.215 322.346 250.316 381.327 246.061C404.953 244.379 430.959 248.04 454.416 249.129C478.042 250.217 503.538 251.306 526.655 247.645C549.261 243.983 568.468 235.078 591.925 232.802C639.857 228.052 682.861 250.118 719.575 264.862C761.899 281.882 817.31 313.844 871.702 317.208C910.456 319.583 958.049 315.625 996.803 313.943C1053.74 311.37 1107.97 297.616 1166.1 303.256C1194.31 306.027 1219.98 313.547 1248.87 314.536C1271.65 315.328 1294.6 315.823 1317.54 316.516C1377.2 318.297 1433.47 313.745 1492.96 311.568C1493.13 310.282 1493.13 309.787 1493.13 308.698Z" fill="url(#paint20_linear_55_34)"/>
<path d="M1493.13 300.119C1433.61 303.484 1379.53 318.629 1321.2 304.573C1274.27 293.289 1222.23 293.883 1171.56 293.487C1112.55 292.992 1055.58 300.713 997.087 302.692C957.125 304.078 911.041 315.362 871.589 313.382C816.492 310.71 756.804 274.68 714.972 257.259C676.37 241.124 634.538 219.447 584.032 222.218C560.395 223.505 538.969 229.939 515.672 232.315C492.545 234.69 467.887 233.899 444.59 233.8C422.484 233.701 398.336 231.82 376.4 233.602C317.732 238.551 268.927 275.67 227.265 298.238C184.072 321.598 137.138 356.242 74.2188 338.227C29.3252 325.359 -3.83475 305.761 -53.9999 300.118C-53.9999 301.207 -53.9999 301.801 -53.9999 302.89C-3.83475 308.631 29.3252 328.329 74.2188 341.197C136.968 359.212 184.242 324.567 227.605 301.207C269.438 278.738 318.752 241.421 377.42 236.571C399.697 234.789 424.354 237.066 446.801 237.363C470.268 237.66 495.096 238.551 518.223 235.878C541.35 233.206 562.266 226.178 585.733 224.693C635.558 221.526 677.731 243.302 715.822 259.04C757.825 276.363 816.322 311.403 871.419 314.273C910.531 316.352 957.295 306.751 996.917 305.266C1055.07 303.187 1111.36 293.982 1170.2 295.763C1220.02 297.248 1273.08 298.337 1320.35 307.443C1379.19 318.827 1433.44 305.959 1493.13 302.89C1493.13 301.801 1493.13 301.208 1493.13 300.119Z" fill="url(#paint21_linear_55_34)"/>
<path d="M1493.83 291.479C1434.31 295.443 1380.24 317.142 1324.29 295.641C1276.67 277.31 1230.76 282.958 1175.83 285.93C1116.83 289.101 1057.14 292.47 997.96 294.055C972.283 294.749 952.557 296.632 928.58 301.388C911.234 304.856 891.168 310.305 872.293 309.513C848.315 308.522 822.808 296.929 803.592 289.299C772.643 277.112 743.054 263.735 712.955 250.854C672.993 233.812 632.18 212.508 580.144 213.896C556.337 214.49 533.55 219.345 509.913 220.832C486.616 222.318 462.809 221.624 439.512 222.318C418.426 222.912 395.299 222.12 374.723 224.002C316.225 229.452 268.781 266.113 227.458 288.903C184.605 312.584 138.521 346.867 75.7725 329.131C30.5389 316.547 -2.96122 297.028 -53.1263 291.479C-53.1263 292.569 -53.1263 293.163 -53.1263 294.253C-2.96122 299.901 30.3688 319.421 75.4324 332.104C138.351 349.939 184.605 315.458 227.628 291.875C269.121 269.185 316.905 232.424 375.573 227.074C396.659 225.191 420.126 226.281 441.383 225.885C464.85 225.489 488.827 226.182 512.124 224.399C535.591 222.615 558.038 217.265 581.675 216.472C633.201 214.688 674.353 236.091 713.975 252.836C743.904 265.519 773.323 278.697 804.102 290.786C823.318 298.316 848.485 309.612 872.463 310.702C891.168 311.494 911.234 306.441 928.75 303.369C952.557 299.208 972.963 297.424 998.131 296.731C1057.14 295.046 1115.98 290.29 1174.98 288.209C1228.55 286.327 1276.33 282.462 1323.78 298.415C1380.58 317.539 1434.31 298.019 1494 294.155C1493.83 293.164 1493.83 292.569 1493.83 291.479Z" fill="url(#paint22_linear_55_34)"/>
<path d="M1493.13 283.224C1432.45 287.679 1380.43 314.312 1325.53 287.184C1301.4 275.303 1287.63 268.67 1253.97 269.858C1228.65 270.749 1203.15 275.996 1178.16 278.67C1120.2 284.907 1056.63 284.709 997.652 285.798C970.627 286.293 952.439 288.669 928.133 294.906C910.796 299.362 891.589 305.797 871.872 305.104C847.736 304.213 821.56 292.035 802.522 284.313C771.077 271.64 740.992 257.878 710.397 244.513C669.433 226.692 629.319 205.9 576.117 206.197C529.884 206.494 480.422 209.366 434.359 211.94C414.132 213.029 392.205 213.227 372.318 215.207C314.017 221.048 267.614 257.185 226.481 280.154C203.024 293.223 169.54 315.499 137.074 323.024C113.958 328.271 98.3204 326.786 75.7139 320.549C30.6708 307.975 -3.154 288.768 -53.1263 283.224C-53.1263 284.313 -53.1263 284.907 -53.1263 285.996C-2.98403 291.54 30.6708 310.846 75.7139 323.519C138.604 341.142 183.987 306.985 226.651 283.224C267.784 260.353 314.527 224.018 372.828 218.276C392.885 216.296 415.322 216.395 435.719 215.405C482.122 213.227 530.734 209.366 577.137 208.871C629.999 208.177 670.283 229.266 710.907 246.79C741.332 259.957 771.247 273.62 802.522 286.095C821.56 293.718 847.566 305.797 871.702 306.688C891.249 307.48 910.626 301.243 927.963 297.184C952.269 291.441 970.797 289.164 997.483 288.669C1056.63 287.481 1118.84 286.491 1177.15 281.244C1202.13 278.967 1228.14 274.709 1253.46 273.917C1286.27 273.026 1300.38 278.868 1324.85 290.055C1379.92 315.401 1432.79 290.352 1492.96 285.996C1493.13 284.808 1493.13 284.313 1493.13 283.224Z" fill="url(#paint23_linear_55_34)"/>
<path d="M1493.13 274.539C1431.43 279.092 1381.28 309.775 1326.89 278.498C1303.44 265.037 1290.52 256.326 1254.65 258.306C1229.16 259.692 1204.85 267.412 1180.2 271.074C1123.43 279.388 1055.95 276.419 997.483 277.211C969.267 277.607 952.609 280.18 927.963 287.604C910.626 292.849 892.269 299.976 871.702 299.184C847.396 298.293 821.05 285.822 802.013 278.102C770.057 265.037 739.632 250.883 708.697 237.224C666.883 218.814 627.619 198.424 573.568 198.127C527.335 197.83 476.512 198.226 430.789 201.888C411.072 203.472 390.166 204.363 370.789 206.342C312.488 212.281 266.765 248.21 225.971 271.272C202.684 284.436 169.709 306.706 137.244 314.13C114.128 319.475 98.4904 317.891 75.8839 311.655C30.8408 299.184 -3.154 280.081 -53.1263 274.538C-53.1263 275.627 -53.1263 276.221 -53.1263 277.31C-3.154 282.852 30.8408 301.955 75.8839 314.526C98.3204 320.761 114.128 322.345 137.244 317C169.709 309.577 202.854 287.307 226.141 274.142C267.105 251.179 312.998 215.151 371.129 209.213C390.676 207.233 411.922 206.54 431.809 205.056C477.532 201.789 528.015 200.602 574.248 200.7C628.129 200.898 667.563 221.387 709.207 239.599C740.142 253.159 770.397 267.214 802.183 280.081C821.22 287.802 847.566 300.273 871.872 301.065C892.269 301.758 910.796 294.829 928.133 289.88C952.609 282.853 969.777 280.279 997.652 279.883C1056.29 278.993 1122.58 281.17 1179.69 273.45C1204.51 270.084 1229.16 263.156 1254.48 261.869C1289.67 260.088 1302.93 268.204 1326.55 281.269C1381.11 311.359 1431.77 281.962 1493.13 277.31C1493.13 276.221 1493.13 275.627 1493.13 274.539Z" fill="url(#paint24_linear_55_34)"/>
<path d="M1493.66 266.007C1431.43 270.162 1382.12 303.994 1328.05 269.964C1305.26 255.619 1292.68 245.43 1255.44 247.903C1229.26 249.684 1206.81 258.983 1181.82 263.237C1126.05 272.734 1055.66 267.886 997.845 268.579C968.599 268.974 953.126 271.349 928.472 279.659C910.958 285.495 893.785 292.816 872.191 292.024C847.536 291.134 821.691 278.867 802.477 270.953C770.171 257.697 739.566 243.254 708.109 229.305C665.601 210.41 627.344 190.625 572.593 190.031C526.175 189.537 474.825 188.053 429.086 192.504C409.532 194.384 389.638 195.769 370.255 197.747C311.934 203.584 266.535 239.494 225.897 262.643C202.773 275.8 169.956 298.059 137.48 305.478C114.356 310.82 98.5427 309.138 76.0984 303.005C31.0398 290.639 -3.13676 271.645 -53.1263 266.105C-53.1263 267.194 -53.1263 267.787 -53.1263 268.875C-3.13676 274.415 31.0398 293.409 76.0984 305.874C98.5427 312.106 114.356 313.689 137.48 308.347C169.956 300.928 202.773 278.669 225.897 265.512C266.705 242.363 311.934 206.552 370.255 200.616C389.638 198.638 409.872 197.352 429.426 195.571C475.165 191.416 526.345 192.307 572.764 192.801C627.344 193.395 665.941 213.378 708.279 232.075C739.566 245.925 770.171 260.269 802.308 273.426C821.521 281.34 847.536 293.706 872.191 294.596C893.445 295.388 911.128 288.067 928.472 282.33C953.126 274.316 968.939 271.744 998.015 271.448C1056 270.755 1125.71 275.108 1181.82 265.908C1206.64 261.852 1229.6 252.948 1255.61 251.267C1292.51 248.892 1305.26 258.686 1328.22 272.833C1382.29 306.072 1431.77 273.228 1494 268.876C1493.66 267.59 1493.66 267.095 1493.66 266.007Z" fill="url(#paint25_linear_55_34)"/>
<path d="M1493.13 257.505C1430.55 261.276 1381.91 296.308 1327.67 261.673C1305.05 247.185 1292.47 236.765 1254.88 239.246C1228.53 241.032 1206.25 250.757 1181.25 255.124C1125.14 264.75 1054.73 259.093 996.577 259.887C967.498 260.284 951.853 262.864 927.366 271.101C909.681 277.055 892.675 284.399 870.909 283.605C846.081 282.712 820.234 270.307 800.848 262.368C768.878 249.169 738.439 234.78 707.32 220.886C664.467 201.733 626.885 182.382 571.959 181.786C525.195 181.29 474.349 178.908 428.265 183.573C408.54 185.557 388.474 187.145 368.748 189.13C310.76 194.985 265.186 230.909 224.714 253.933C201.587 267.032 168.767 289.261 136.458 296.704C113.161 302.063 97.3457 300.475 74.7289 294.223C29.8354 281.918 -4.34491 263.261 -53.9999 257.505C-53.9999 258.597 -53.9999 259.192 -53.9999 260.284C-4.17486 266.04 30.0054 284.796 75.069 297.201C97.6858 303.453 113.501 305.04 136.628 299.682C168.937 292.239 201.757 269.91 224.884 256.711C265.526 233.589 310.93 197.565 369.088 191.71C388.474 189.725 408.369 188.237 427.925 186.252C473.839 181.588 525.025 183.771 571.619 184.168C626.545 184.764 664.297 204.314 706.979 223.367C738.269 237.36 768.878 251.849 801.188 265.147C820.574 273.185 846.251 285.391 871.079 286.284C893.016 287.078 909.681 279.834 927.536 273.78C952.193 265.345 967.498 262.963 996.747 262.567C1054.56 261.773 1125.31 267.33 1181.08 257.605C1206.08 253.238 1228.02 243.414 1254.54 241.627C1292.3 239.047 1304.54 249.566 1327.33 264.154C1381.4 298.888 1430.38 263.857 1492.79 260.086C1493.13 259.192 1493.13 258.597 1493.13 257.505Z" fill="url(#paint26_linear_55_34)"/>
<path d="M1493.66 249.146C1430.74 252.81 1383.64 288.161 1328.03 253.998C1305.07 239.937 1292.15 229.836 1255.25 232.213C1228.72 233.896 1206.1 243.402 1180.94 247.561C1123.29 257.167 1054.25 250.532 994.899 251.423C966.161 251.819 949.836 254.592 925.349 262.514C907.493 268.158 889.978 275.486 868.381 274.694C843.894 273.803 817.706 261.524 798.49 253.602C767.371 240.828 737.952 226.766 707.853 213.299C665.17 194.187 628.439 175.868 574.023 174.977C526.748 174.185 476.243 170.818 429.479 175.67C408.733 177.848 387.476 179.631 366.9 181.809C309.763 187.751 263.849 222.805 223.207 245.284C180.184 269.049 136.141 301.826 73.3918 284.794C29.1785 272.812 -4.49168 255.087 -53.1263 249.344C-53.1263 250.433 -53.1263 250.928 -53.1263 252.017C-4.15158 257.86 29.8587 275.882 74.242 287.963C137.331 305.193 181.204 272.119 224.227 248.155C264.869 225.578 310.613 190.127 368.091 184.285C388.327 182.205 409.073 180.522 429.479 178.443C475.903 173.689 526.578 176.66 573.683 177.353C628.439 178.146 665.51 196.861 708.193 215.973C738.632 229.638 768.391 243.699 799.851 256.672C819.067 264.594 845.254 276.972 869.912 277.863C891.508 278.655 909.024 271.327 926.709 265.584C951.366 257.563 967.351 254.889 996.09 254.394C1055.1 253.503 1124.48 259.84 1181.62 250.136C1206.78 245.878 1229.23 236.372 1255.59 234.589C1292.66 232.114 1305.41 242.412 1328.37 256.573C1383.64 290.934 1431.08 255.681 1494 252.018C1493.66 250.829 1493.66 250.235 1493.66 249.146Z" fill="url(#paint27_linear_55_34)"/>
<path d="M1493.13 240.556C1429.9 244.324 1384.68 280.123 1327.23 246.704C1303.95 233.119 1290.69 223.698 1254.31 225.88C1227.8 227.466 1204.34 236.589 1179.01 240.556C1119.52 249.977 1051.36 242.043 990.514 242.638C962.128 242.936 944.791 245.911 920.144 253.249C902.127 258.604 883.6 265.744 862.183 264.95C807.452 262.868 746.771 223.499 707.167 205.65C664.844 186.61 629.829 169.95 576.457 168.364C528.015 166.975 478.042 162.116 429.77 167.273C407.333 169.653 384.557 171.834 362.29 174.214C305.689 180.263 259.966 213.781 219.002 235.697C175.829 258.802 131.805 290.535 69.7648 274.073C26.7614 262.67 -6.04355 246.01 -53.1263 240.357C-53.1263 241.448 -53.1263 241.944 -53.1263 243.035C-5.53363 248.786 27.6113 265.744 70.9546 277.445C133.165 294.105 177.188 261.975 220.362 238.672C261.325 216.558 307.048 182.445 363.82 176.396C385.576 174.115 407.673 172.132 429.6 169.752C477.362 164.695 527.335 169.058 575.437 170.248C629.319 171.537 664.844 188.891 707.337 207.931C736.573 221.12 765.128 234.804 795.384 247.2C814.421 255.034 840.087 267.132 864.393 268.025C885.81 268.818 903.997 261.579 922.014 256.125C946.66 248.588 963.658 245.712 992.043 245.316C1052.38 244.523 1120.88 252.059 1179.69 242.539C1205.02 238.473 1228.14 229.251 1254.65 227.565C1291.2 225.285 1304.29 235.003 1327.4 248.687C1384.17 282.404 1430.07 246.704 1493.13 243.035C1493.13 242.143 1493.13 241.647 1493.13 240.556Z" fill="url(#paint28_linear_55_34)"/>
<path d="M1493.13 232.429C1429.73 236.292 1386.21 272.55 1326.72 240.453C1302.93 227.574 1289.16 218.956 1253.63 220.937C1226.78 222.423 1202.64 230.943 1176.98 234.707C1115.44 243.722 1047.62 234.311 985.074 234.509C957.539 234.608 937.822 237.382 913.516 244.515C895.498 249.765 875.271 256.402 854.364 255.511C801.503 253.331 744.731 216.38 706.317 199.043C664.844 180.221 631.869 165.658 579.857 163.38C529.544 161.2 480.422 154.365 429.94 160.011C405.293 162.785 380.647 165.262 356.171 167.937C300.08 173.98 254.866 205.383 213.223 226.683C170.049 248.774 125.686 279.088 65.1755 263.535C23.7019 252.935 -7.91327 237.481 -53.1263 232.23C-53.1263 233.32 -53.1263 233.815 -53.1263 234.905C-7.23337 240.255 24.7217 256.105 66.7053 267.002C127.726 282.853 171.919 252.043 215.093 229.655C256.566 208.157 301.949 175.961 358.211 169.918C382.007 167.342 405.973 165.064 429.77 162.389C479.402 156.841 528.864 163.082 578.497 164.965C631.019 166.946 664.674 182.301 706.487 201.124C745.241 218.658 803.372 256.402 856.914 258.582C877.821 259.374 897.878 252.737 915.555 247.288C939.691 239.958 959.068 237.283 986.774 237.085C1048.81 236.688 1116.63 245.604 1177.48 236.49C1203.15 232.627 1226.95 223.909 1253.8 222.423C1289.5 220.442 1303.27 229.258 1326.89 242.335C1385.53 274.829 1429.73 238.769 1493.13 234.905C1493.13 234.113 1493.13 233.518 1493.13 232.429Z" fill="url(#paint29_linear_55_34)"/>
<path d="M1492.96 223.809C1429.22 227.973 1387.74 264.655 1326.04 234.119C1301.57 222.024 1287.12 214.39 1252.61 216.076C1225.42 217.464 1200.6 225.395 1174.26 228.865C1110.35 237.391 1042.53 226.188 978.105 225.791C950.57 225.593 929.833 228.468 905.017 234.912C886.49 239.77 865.413 246.016 844.336 245.124C793.684 242.943 741.502 208.838 704.957 192.083C664.504 173.544 633.908 161.449 583.766 158.375C531.074 155.203 483.311 146.082 429.94 152.328C402.744 155.5 375.888 158.574 348.692 161.449C293.111 167.397 248.237 196.445 206.084 216.968C163.25 237.787 118.547 266.439 59.5664 251.964C19.9625 242.249 -10.1229 228.171 -53.1263 223.61C-53.1263 224.701 -53.1263 225.196 -53.1263 226.287C-9.44303 231.046 21.1523 245.619 61.4361 255.633C120.927 270.405 165.46 241.257 208.464 220.041C250.447 199.221 295.49 169.38 351.242 163.432C377.588 160.556 403.594 157.781 429.94 154.707C482.292 148.56 530.564 156.987 582.406 159.863C633.228 162.638 664.504 175.626 705.467 194.264C742.692 211.218 796.403 246.313 847.736 248.495C868.812 249.387 889.549 242.943 907.906 237.986C932.552 231.244 952.949 228.468 980.485 228.567C1044.4 228.766 1112.05 239.374 1175.28 230.649C1201.45 227.08 1226.1 218.852 1252.95 217.464C1287.8 215.679 1302.08 223.61 1326.38 236.003C1387.23 267.034 1429.39 230.55 1493.13 226.485C1492.96 225.395 1492.96 224.899 1492.96 223.809Z" fill="url(#paint30_linear_55_34)"/>
<path d="M1493.13 215.34C1429.05 219.802 1389.78 256.786 1325.7 228.329C1301.23 217.422 1284.91 209.886 1251.76 212.068C1224.23 213.852 1198.73 220.496 1171.71 223.768C1105.25 231.7 1037.26 218.612 970.627 217.422C922.014 216.529 880.031 237.054 833.118 234.873C785.185 232.691 738.272 201.756 703.598 185.792C664.504 167.746 636.288 158.128 588.525 154.261C532.774 149.799 487.391 138.297 429.94 145.238C399.854 148.907 370.449 152.476 340.193 155.748C285.292 161.598 240.929 187.973 197.755 207.605C155.092 227.04 110.049 253.613 53.1075 240.524C15.7132 231.898 -12.6724 219.306 -53.1262 215.439C-53.1262 216.529 -53.1262 217.025 -53.1262 218.116C-11.8226 222.28 17.073 235.269 55.3172 244.292C112.938 257.876 157.811 230.609 200.475 210.679C243.308 190.749 287.842 163.482 342.913 157.632C372.149 154.558 400.704 151.088 429.77 147.618C485.861 140.875 532.094 151.584 586.826 155.649C635.438 159.219 664.334 169.729 703.938 187.874C739.292 204.135 787.905 236.063 836.687 238.244C883.26 240.326 924.734 219.504 973.006 220.099C1038.96 220.991 1106.78 233.485 1172.56 225.354C1199.41 222.082 1224.57 215.141 1252.1 213.357C1285.59 211.076 1301.74 219.008 1325.87 230.213C1389.1 259.364 1429.05 222.479 1493.13 218.116C1493.13 216.926 1493.13 216.43 1493.13 215.34Z" fill="url(#paint31_linear_55_34)"/>
<path d="M1493.13 206.642C1428.37 211.503 1391.82 248.706 1325.02 222.515C1300.04 212.693 1282.87 206.344 1250.57 208.13C1222.53 209.717 1196.18 215.669 1168.65 218.546C1099.3 225.689 1031.14 210.709 962.298 208.626C912.666 207.138 868.812 226.285 820.71 224.003C775.837 221.82 734.363 194.34 701.728 179.161C683.031 170.331 663.824 160.411 641.217 155.252C624.73 151.482 610.962 151.78 593.455 149.994C534.134 144.041 491.81 129.954 429.6 137.692C396.285 141.859 364.16 146.224 330.675 149.597C276.283 155.153 232.43 178.863 188.577 197.415C146.253 215.372 101.04 239.678 46.1386 228.07C11.1239 220.729 -15.392 209.816 -53.1262 206.641C-53.1262 207.733 -53.1262 208.229 -53.1262 209.32C-14.5421 212.693 12.6537 224.201 48.5182 232.039C104.1 244.142 149.313 219.042 191.636 200.59C235.15 181.641 279.173 157.137 333.734 151.383C366.03 148.01 397.305 143.942 429.6 139.875C490.11 132.335 533.624 145.629 591.755 151.184C609.602 152.871 623.03 152.673 639.858 156.542C663.144 161.899 682.861 172.117 702.238 181.145C735.383 196.622 778.726 225.193 824.619 227.376C872.212 229.658 915.555 210.015 964.848 211.304C1033.01 213.09 1101.17 227.475 1169.5 220.035C1196.86 217.058 1223.04 210.808 1250.91 209.221C1283.38 207.336 1300.38 214.082 1325.19 224.201C1391.14 251.186 1428.54 213.983 1493.13 209.32C1493.13 208.328 1493.13 207.733 1493.13 206.642Z" fill="url(#paint32_linear_55_34)"/>
<path d="M1493.13 198.644C1427.66 203.997 1393.99 241.072 1324.27 217.578C1268.66 198.842 1225.13 209.052 1165.27 214.306C1093.17 220.651 1024.47 203.699 953.044 200.626C902.368 198.445 856.625 216.091 807.14 213.712C765.477 211.729 729.596 187.739 699.497 173.464C682.662 165.434 665.317 156.512 644.741 151.952C628.926 148.483 614.812 148.879 598.147 146.797C569.238 143.328 543.56 134.108 515.162 129.846C485.913 125.385 457.854 127.367 428.776 131.035C392.215 135.695 357.184 140.949 320.283 144.517C266.547 149.771 223.014 170.688 178.46 188.135C136.287 204.591 91.2239 226.301 38.1679 216.388C5.34801 210.341 -19.1394 200.923 -53.9999 198.643C-53.9999 199.734 -53.9999 200.229 -53.9999 201.32C-18.1191 203.897 7.04853 213.711 40.5486 220.254C94.1148 230.762 139.518 208.16 181.521 191.208C225.904 173.464 269.438 151.655 323.344 146.302C359.055 142.733 393.235 137.776 428.776 133.315C457.344 129.647 485.233 127.962 513.971 132.027C542.2 136.091 567.878 144.616 596.446 147.987C613.281 149.97 627.396 149.573 643.38 153.142C664.637 157.9 682.492 167.119 700.007 175.447C730.787 190.019 768.538 215.099 811.221 217.181C860.196 219.56 905.429 201.419 955.765 203.402C1026.34 206.178 1094.87 222.534 1166.12 215.893C1226.32 210.242 1268.83 199.734 1324.44 219.362C1393.14 243.749 1427.83 206.574 1493.13 201.419C1493.13 200.23 1493.13 199.734 1493.13 198.644Z" fill="url(#paint33_linear_55_34)"/>
<path d="M1493.13 189.844C1453 193.406 1434.47 209.731 1398.08 216.756C1371.72 221.801 1347.92 218.734 1323.6 211.907C1267.66 196.176 1221.07 205.08 1161.9 209.434C1086.92 214.876 1017.55 196.077 943.921 191.921C892.401 189.052 844.112 205.674 793.782 202.706C755.015 200.43 725.769 180.741 697.714 167.087C664.898 151.059 642.794 148.585 603.856 143.045C573.93 138.79 548.425 128.104 519.18 122.861C488.574 117.32 459.498 119.793 428.723 123.85C388.765 128.995 350.678 135.129 310.38 138.889C257.33 143.737 214.141 161.942 168.913 178.069C126.235 193.207 82.8763 211.511 30.8464 203.794C0.580578 199.342 -22.0338 191.426 -53.9999 189.942C-53.9999 191.031 -53.9999 191.525 -53.9999 192.614C-21.1836 194.395 2.11087 202.904 33.0568 207.653C85.5969 215.766 128.955 196.868 171.803 181.137C216.862 164.614 260.05 145.617 313.441 140.67C352.718 137.009 389.785 131.172 428.723 126.126C458.988 122.168 487.724 119.892 517.82 125.037C546.725 129.984 572.4 140.175 601.986 144.232C641.943 149.575 664.558 152.84 698.054 169.066C726.96 183.017 758.076 203.794 797.863 206.07C847.853 208.939 895.462 191.921 946.642 194.593C1019.59 198.352 1088.62 216.657 1162.75 210.819C1222.09 206.169 1267.66 196.868 1323.6 213.589C1347.75 220.812 1371.38 224.077 1397.91 219.031C1434.13 212.204 1452.83 195.978 1492.79 192.515C1493.13 191.427 1493.13 190.833 1493.13 189.844Z" fill="url(#paint34_linear_55_34)"/>
<path d="M1492.96 181.719C1452.33 185.573 1434.32 202.571 1397.6 209.883C1371.94 215.022 1347.46 212.453 1322.81 206.82C1266.55 193.973 1216.92 201.582 1158.62 205.041C1080.94 209.587 1010.91 188.933 935.102 183.794C882.58 180.237 832.438 195.356 780.596 192.194C745.241 190.02 721.615 174.11 696.119 161.263C665.864 146.143 645.297 145.55 609.602 139.819C578.837 134.877 553.171 122.722 523.425 116.398C491.47 109.678 461.215 112.84 428.92 117.188C385.747 122.92 344.613 130.035 300.929 133.692C248.578 138.139 205.574 153.851 159.851 168.477C117.528 182.015 74.1843 197.827 24.2119 191.799C-3.15388 188.439 -24.5706 182.608 -53.1262 181.818C-53.1262 182.905 -53.1262 183.399 -53.1262 184.486C-23.5507 185.474 -1.79409 191.996 26.5916 195.653C77.0738 202.274 120.587 185.672 162.911 171.639C208.464 156.519 251.637 140.115 304.159 135.47C346.822 131.715 387.106 124.995 429.26 119.362C461.215 115.113 490.79 112.247 522.406 118.572C552.151 124.402 577.647 136.261 608.072 141.004C644.787 146.637 665.694 147.823 696.799 163.239C723.145 176.284 748.471 193.38 784.845 195.653C836.177 198.716 885.64 183.103 937.992 186.463C1013.29 191.305 1082.98 211.465 1159.81 206.523C1218.28 202.867 1266.89 194.862 1323.15 208.5C1347.63 214.528 1371.94 217.295 1397.77 212.156C1434.32 204.942 1452.5 188.143 1493.13 184.387C1492.96 183.3 1492.96 182.806 1492.96 181.719Z" fill="url(#paint35_linear_55_34)"/>
<path d="M1493.13 172.893C1451.82 177.049 1434.32 194.659 1397.43 202.376C1372.45 207.62 1347.29 205.443 1322.3 200.991C1265.7 190.999 1213.35 197.232 1155.56 199.903C1075.16 203.563 1004.62 181.006 926.434 174.872C872.722 170.618 820.88 184.271 767.848 181.105C735.553 179.126 717.876 166.462 694.419 154.59C666.713 140.541 647.506 141.53 615.041 135.693C583.256 129.955 557.59 116.5 527.165 108.98C494.36 100.868 462.405 105.023 428.92 109.574C382.687 115.807 338.324 123.92 291.411 127.679C239.909 131.736 196.735 145.092 150.503 158.349C108.349 170.42 65.5156 183.677 17.073 179.324C-7.40323 177.147 -27.8001 173.19 -53.1262 172.992C-53.1262 174.08 -53.1262 174.575 -53.1262 175.663C-26.7803 176.059 -6.21341 180.511 19.2827 183.083C68.0652 188.03 111.239 173.882 153.392 161.416C199.455 147.763 242.628 133.714 294.301 129.46C340.363 125.701 383.707 117.885 428.92 111.85C462.065 107.397 493.51 103.44 525.975 111.256C556.06 118.478 581.896 131.538 613.342 136.979C646.826 142.718 666.713 142.124 694.929 156.668C718.725 168.936 738.612 182.589 771.757 184.568C824.449 187.734 875.781 173.586 929.153 177.642C1006.66 183.479 1077.03 205.443 1156.58 201.585C1214.54 198.716 1266.04 192.087 1322.47 202.871C1347.29 207.62 1372.28 209.994 1397.43 204.751C1434.32 197.034 1451.99 179.621 1493.13 175.664C1493.13 174.476 1493.13 173.982 1493.13 172.893Z" fill="url(#paint36_linear_55_34)"/>
<path d="M1493.83 164.859C1452 169.316 1434.99 187.442 1397.75 195.664C1373.09 201.112 1347.59 199.13 1322.25 195.961C1265.11 188.829 1210.86 193.584 1153.05 195.466C1070.06 198.239 998.981 174.07 918.547 166.939C863.96 162.085 810.224 174.169 755.808 171.099C726.049 169.415 714.485 159.609 692.889 148.812C667.381 136.035 649.866 138.115 620.107 132.172C587.457 125.733 561.609 110.876 530.66 102.456C496.649 93.2444 463.83 98.0979 428.799 102.852C379.654 109.489 332.21 118.701 282.215 122.365C231.54 126.03 188.177 137.322 141.582 149.109C98.8996 159.708 57.7472 170.009 10.3029 167.632C-11.2936 166.542 -31.1896 163.868 -53.1262 164.858C-53.1262 165.948 -53.1262 166.443 -53.1262 167.434C-30.1693 167.335 -10.2733 169.91 12.3435 171.297C59.9579 174.367 101.961 163.076 144.473 151.883C190.897 139.6 234.26 127.813 285.106 123.95C334.251 120.285 380.845 111.371 428.969 104.833C463.66 100.178 496.139 95.5226 529.81 104.437C560.589 112.559 586.437 127.021 618.746 133.261C649.526 139.204 667.211 137.52 693.569 150.595C716.016 161.689 728.94 172.486 759.719 174.169C813.625 177.24 866.851 164.76 921.267 169.415C1001.02 176.25 1071.93 200.022 1154.24 196.951C1212.06 194.772 1265.62 189.721 1322.59 197.645C1347.76 201.112 1373.09 203.192 1397.92 197.843C1435.16 189.721 1452.34 171.792 1494 167.434C1493.83 166.345 1493.83 165.849 1493.83 164.859Z" fill="url(#paint37_linear_55_34)"/>
<path d="M1493.13 156.27C1450.78 160.932 1434.29 179.678 1396.71 188.208C1372.39 193.762 1346.37 191.977 1321.03 189.894C1263.56 185.232 1207.44 188.704 1149.79 189.993C1064.43 191.977 993.006 166.189 910.531 158.254C855.264 152.898 799.827 163.312 744.391 160.535C717.353 159.246 710.21 152.203 690.995 141.987C668.718 130.184 650.863 133.16 624.165 127.506C590.664 120.365 564.987 104.198 533.357 94.8742C498.497 84.6581 464.486 90.1133 428.265 95.0726C328.956 108.76 228.455 117.885 133.056 139.111C89.3533 148.93 50.2415 155.873 3.3074 155.873C-15.9084 155.873 -34.7841 155.476 -53.9999 156.27C-53.9999 157.361 -53.9999 157.857 -53.9999 158.849C-34.1039 157.956 -14.718 159.146 5.00791 159.444C52.1121 160.138 91.7341 152.203 135.097 142.086C229.476 120.166 328.956 110.942 427.925 97.3538C463.806 92.3946 497.476 87.1378 532.167 97.0563C563.626 106.082 589.304 121.853 622.634 128.796C650.352 134.548 667.868 131.771 691.165 143.971C711.061 154.385 719.563 162.221 747.452 163.61C802.548 166.486 857.475 155.576 912.571 160.733C994.366 168.47 1065.79 193.762 1150.3 191.58C1207.95 190.092 1263.56 186.224 1321.03 191.679C1346.37 194.06 1372.22 195.845 1396.71 190.39C1434.29 181.959 1450.95 163.411 1493.13 158.849C1493.13 157.857 1493.13 157.361 1493.13 156.27Z" fill="url(#paint38_linear_55_34)"/>
<path d="M1493.66 148.02C1450.98 152.868 1434.83 171.967 1396.91 180.773C1372.94 186.315 1346.41 184.83 1321.08 183.742C1263.27 181.169 1205.79 183.544 1147.98 184.336C1060.59 185.622 988.833 158.509 904.667 149.9C848.726 144.16 791.766 153.66 735.485 150.592C710.66 149.306 707.429 145.15 690.256 135.354C670.872 124.37 652.339 128.328 628.534 122.687C594.358 114.672 568.683 97.7511 536.547 87.6578C501.18 76.6739 466.153 82.6111 428.916 87.7567C375.016 95.1782 322.136 106.162 266.875 109.724C217.736 112.891 173.697 120.609 126.938 129.713C68.6171 140.994 8.25554 146.04 -53.1262 147.822C-53.1262 148.811 -53.1262 149.405 -53.1262 150.394C9.95587 148.316 68.4471 144.853 128.979 132.583C175.738 123.083 219.776 114.969 269.086 111.703C323.666 108.141 375.866 97.3552 429.086 90.0327C465.983 84.986 500.67 79.1477 536.037 89.9337C568.173 99.7301 593.848 116.354 627.684 124.172C652.339 129.911 670.532 126.052 690.936 137.333C708.45 147.03 713.041 152.374 738.545 153.462C794.486 155.936 851.107 146.634 906.878 152.275C990.534 160.686 1062.29 187.403 1149 185.919C1206.82 184.929 1263.95 182.258 1321.59 185.523C1346.92 186.909 1373.28 188.492 1397.42 182.95C1435.17 174.242 1451.49 155.243 1494 150.395C1493.66 149.603 1493.66 149.009 1493.66 148.02Z" fill="url(#paint39_linear_55_34)"/>
<path d="M1492.96 139.36C1449.78 144.304 1434.32 163.882 1396.07 172.881C1372.28 178.517 1345.42 177.132 1320.09 176.737C1261.79 176.045 1203.66 177.231 1145.53 177.726C1056.63 178.418 984.565 150.236 899.068 141.139C842.806 135.108 784.505 143.414 727.734 140.645C703.428 139.458 705.467 136.788 689.32 128.087C671.303 118.495 653.455 122.352 631.529 116.913C596.684 108.409 571.188 90.5116 538.383 79.8324C502.519 68.1643 466.654 74.6905 428.92 79.9312C373.168 87.644 318.097 99.3121 260.986 102.872C212.713 105.937 168.18 112.365 121.437 120.374C78.2636 127.691 37.2999 128.482 -5.70349 133.822C-22.3609 135.898 -35.279 139.162 -53.1262 139.26C-53.1262 140.249 -53.1262 140.843 -53.1262 141.831C4.49495 140.941 68.7451 132.734 122.967 123.143C169.71 114.935 214.073 108.014 262.685 104.948C319.287 101.389 373.848 89.9183 428.92 82.3044C466.484 77.0636 502.179 70.7352 537.873 82.2055C570.508 92.687 596.004 110.288 630.679 118.693C653.455 124.23 670.793 120.473 689.49 130.262C706.487 139.063 705.128 142.326 729.774 143.512C786.375 146.38 844.336 137.777 900.598 143.71C985.755 152.709 1057.65 180.494 1146.04 179.703C1204.17 179.209 1262.13 177.627 1320.26 178.813C1345.76 179.407 1372.45 180.791 1396.24 175.155C1434.32 166.255 1450.12 146.776 1493.13 141.832C1492.96 140.843 1492.96 140.348 1492.96 139.36Z" fill="url(#paint40_linear_55_34)"/>
<path d="M1493.13 130.952C1449.61 135.899 1434.49 155.883 1396.07 165.084C1372.45 170.723 1345.25 169.239 1319.92 169.536C1261.28 170.229 1202.81 170.525 1144.17 170.723C1053.91 171.02 982.185 141.934 895.498 132.634C838.897 126.599 779.746 133.92 722.635 131.348C698.669 130.26 703.768 128.677 688.81 120.663C672.662 111.957 653.965 115.618 633.568 110.572C598.214 101.668 572.718 82.9696 539.743 71.889C503.878 59.8192 467.334 66.6456 429.26 71.988C372.149 80.0015 315.547 91.9724 256.906 95.6329C209.144 98.6009 164.27 104.339 117.698 111.264C90.1618 115.321 62.966 119.377 34.9203 121.257C20.4725 122.246 5.34482 121.454 -8.93299 123.73C-26.1004 126.5 -32.8993 131.249 -53.1262 130.853C-53.1262 131.842 -53.1262 132.436 -53.1262 133.425C-33.9192 133.623 -24.7406 129.666 -8.08312 126.797C5.85474 124.422 21.3224 125.412 35.7702 124.422C63.9858 122.543 91.1817 118.289 118.717 114.133C165.29 106.911 210.163 100.975 258.096 98.0073C316.057 94.3468 372.489 82.4749 429.09 74.5602C467.164 69.2178 503.538 62.5893 539.403 74.4613C572.378 85.4429 597.874 103.943 633.059 112.748C653.965 117.992 671.983 114.331 688.81 123.136C704.278 131.249 699.688 133.129 723.825 134.316C780.936 136.987 839.917 129.369 896.348 135.404C982.695 144.704 1054.59 173.493 1144.51 173.098C1202.98 172.801 1261.45 172.207 1319.92 171.911C1345.25 171.812 1372.28 173.197 1396.07 167.558C1434.32 158.456 1449.61 138.57 1493.13 133.623C1493.13 132.535 1493.13 132.041 1493.13 130.952Z" fill="url(#paint41_linear_55_34)"/>
<path d="M1493.13 122.212C1449.26 127.159 1434.64 147.442 1396.04 156.644C1372.4 162.284 1345.2 160.602 1319.86 161.394C1261.03 163.076 1202.2 162.68 1143.37 162.68C1052.23 162.68 980.988 132.997 893.422 123.795C836.801 117.858 777.119 124.883 719.818 122.212C694.654 121.024 703.155 119.243 688.532 112.614C672.039 105.094 654.356 108.063 634.462 103.017C598.585 94.0126 573.42 74.6196 539.924 63.241C504.217 51.0709 467.15 58.0959 429.403 63.4389C371.422 71.5523 313.781 83.7224 254.269 87.5812C207 90.6484 161.772 95.9914 115.353 102.225C87.9774 105.886 60.6021 109.745 32.5468 111.526C18.264 112.515 2.45101 111.328 -11.4917 114.098C-29.005 117.561 -30.8754 123.3 -53.9998 122.113C-53.9998 123.102 -53.9998 123.696 -53.9998 124.685C-31.7255 125.576 -28.4949 120.134 -11.1516 116.869C2.79107 114.296 18.264 115.285 32.7168 114.296C60.7722 112.416 87.9774 108.656 115.523 104.797C161.942 98.3661 207.17 93.0231 254.439 89.9558C313.781 86.097 371.082 74.0259 428.893 65.9125C466.81 60.5695 503.707 53.6435 539.584 65.8136C572.91 77.0932 598.245 96.2883 633.952 105.292C654.186 110.338 671.359 107.37 688.192 114.989C703.325 121.816 694.824 123.696 719.988 124.784C777.289 127.456 836.801 120.332 893.422 126.268C980.648 135.569 1052.23 165.054 1143.03 164.956C1201.86 164.857 1260.52 165.054 1319.35 163.669C1344.69 163.076 1371.89 164.659 1395.53 159.019C1434.13 149.817 1448.92 129.633 1492.62 124.685C1493.13 123.696 1493.13 123.201 1493.13 122.212Z" fill="url(#paint42_linear_55_34)"/>
<path d="M1493.13 114.281C1449.95 119.421 1434.32 139.289 1396.07 148.283C1372.28 153.917 1345.25 151.94 1319.92 153.225C1261.11 156.29 1201.96 154.807 1142.98 154.708C1106.78 154.609 1075.67 152.632 1041 145.812C992.214 136.224 944.791 121.101 893.799 115.764C837.027 109.833 777.876 117.444 720.595 114.479C696.289 113.194 703.598 111.316 688.98 104.891C672.153 97.5763 654.645 100.344 634.758 95.4017C598.894 86.5058 573.908 66.8359 540.423 55.4688C504.898 43.311 467.674 50.7243 429.94 55.8642C371.809 63.7717 314.187 75.2375 254.697 79.389C207.444 82.6508 162.231 87.8895 115.828 94.2155C88.4621 97.9716 61.0963 101.826 33.0506 103.606C18.7728 104.495 2.62524 103.309 -10.9727 106.077C-28.65 109.734 -29.1599 115.665 -53.1262 114.281C-53.1262 115.269 -53.1262 115.763 -53.1262 116.851C-29.1599 118.235 -28.65 112.304 -10.9727 108.647C2.79521 105.879 18.7728 107.065 33.0506 106.176C60.9263 104.396 88.4621 100.542 115.828 96.8843C162.061 90.6571 207.444 85.4184 254.527 82.1566C314.018 78.104 371.809 66.3416 429.94 58.2364C467.674 52.9977 504.728 45.7821 540.423 57.8411C573.908 69.2081 598.894 88.7792 634.758 97.774C654.645 102.716 672.323 99.8497 688.98 107.263C703.428 113.787 695.439 115.566 720.255 116.752C777.536 119.618 837.027 112.304 893.629 118.235C944.791 123.572 992.214 138.695 1041.17 148.184C1075.67 154.906 1106.95 157.08 1143.15 157.08C1202.13 157.08 1261.11 158.168 1319.92 155.697C1345.25 154.609 1372.45 156.487 1396.07 150.952C1434.49 141.858 1449.61 121.793 1493.13 116.653C1493.13 115.764 1493.13 115.269 1493.13 114.281Z" fill="url(#paint43_linear_55_34)"/>
<path d="M1493.66 105.311C1451.66 110.569 1434.31 129.322 1396.56 137.954C1372.58 143.51 1345.55 141.228 1320.04 143.907C1261.2 150.058 1200.66 146.685 1140.97 146.288C1104.75 146.09 1073.8 144.304 1039.11 137.358C990.818 127.635 944.394 112.157 893.889 106.699C837.602 100.647 779.615 109.676 722.988 106.699C699.861 105.509 704.452 103.028 688.977 96.9759C671.122 89.9314 653.607 92.4119 633.541 87.3517C597.83 78.4219 573.173 58.6773 540.013 47.2671C504.642 35.1623 467.231 42.703 429.649 47.3663C325.238 60.4632 219.466 69.7898 116.075 84.6727C88.6965 88.6414 61.1482 92.7094 33.0898 94.5946C18.8055 95.4875 2.82065 94.1977 -10.9535 96.9758C-28.6388 100.647 -29.149 106.6 -53.1262 105.211C-53.1262 106.203 -53.1262 106.699 -53.1262 107.791C-29.149 109.18 -28.6388 103.227 -10.9535 99.5555C2.82065 96.7774 18.8055 98.0672 33.0898 97.1743C61.1482 95.3883 88.5265 91.3203 116.075 87.4508C219.806 72.7664 325.408 63.2413 429.819 49.6483C467.571 44.7866 504.812 37.2459 540.353 49.3507C573.683 60.7609 598.34 80.5055 634.221 89.4353C654.287 94.4955 671.802 91.9158 689.318 99.0596C704.452 105.211 699.01 107.493 722.478 108.783C779.445 111.859 837.942 103.326 894.399 109.279C945.075 114.637 991.839 130.016 1040.3 139.74C1074.82 146.685 1105.94 148.471 1142.16 148.669C1201.51 148.967 1261.54 151.745 1320.55 146.586C1346.06 144.403 1372.92 146.586 1396.9 141.029C1434.65 132.199 1451.66 113.05 1494 107.791C1493.66 106.898 1493.66 106.303 1493.66 105.311Z" fill="url(#paint44_linear_55_34)"/>
<path d="M1493.13 96.87C1452.82 101.719 1433.95 118.542 1397.56 126.855C1373.07 132.496 1346.54 130.121 1321.03 134.376C1262.37 144.173 1203.02 139.72 1142.48 138.73C1102.35 138.037 1069.19 137.048 1030.76 128.438C985.183 118.245 939.1 102.115 890.125 97.6616C836.219 92.7136 781.632 102.412 727.556 100.432C706.809 99.6408 703.749 96.7709 688.784 90.6354C671.099 83.4113 653.413 85.2915 633.177 80.9372C597.807 73.2183 573.489 53.5252 541.86 42.3427C507.339 30.1705 475.37 35.0196 437.448 39.1759C328.275 51.0512 218.082 59.8586 110.95 76.4839C84.0818 80.6403 57.3838 84.7966 29.6654 86.5779C15.8913 87.4685 0.926749 86.281 -12.3373 88.9529C-29.8525 92.6144 -30.1926 98.4531 -53.9998 97.0677C-53.9998 98.0573 -53.9998 98.5521 -53.9998 99.6406C-30.0226 101.026 -29.5124 95.0885 -11.8271 91.4269C1.94705 88.656 17.9319 89.9425 32.2162 89.0519C60.4447 87.1716 87.993 82.9163 115.371 78.6611C218.082 63.0253 324.024 54.6137 428.436 42.6395C466.017 38.2853 503.428 30.8633 538.629 42.9364C571.619 54.3169 595.936 74.01 631.647 82.9164C651.883 87.9634 670.759 84.9946 688.614 92.6146C703.919 99.146 703.578 101.323 725.175 102.511C781.122 105.38 837.749 95.0886 893.356 101.125C943.351 106.568 989.095 122.204 1036.71 132.1C1071.23 139.225 1102.18 140.808 1138.23 141.204C1198.77 141.897 1260.16 146.548 1319.16 137.84C1344.67 134.079 1371.54 136.256 1395.86 130.813C1432.93 122.6 1451.8 104.787 1492.79 99.7399C1493.13 98.3544 1493.13 97.8596 1493.13 96.87Z" fill="url(#paint45_linear_55_34)"/>
<path d="M1492.96 88.6113C1454.03 92.9676 1433.13 108.215 1397.6 115.64C1372.28 120.987 1345.93 118.908 1320.6 125.145C1260.94 139.699 1202.13 133.561 1138.39 131.779C1098.28 130.69 1065.47 129.898 1027.23 120.987C982.865 110.591 938.162 93.9576 890.229 89.4032C837.707 84.3538 786.205 96.7298 733.683 94.9477C712.946 94.2546 705.977 90.8883 689.83 84.8488C670.793 77.7203 651.926 79.5024 631.019 74.948C596.004 67.2254 572.208 47.5228 540.933 36.3349C507.108 24.2559 474.813 28.9093 437.249 32.2755C327.445 41.9783 218.662 49.1069 112.088 67.1263C85.0626 71.6807 58.3767 76.136 30.501 78.1162C16.7331 79.1063 1.6054 77.8192 -11.4826 80.5914C-28.9899 84.2547 -29.3299 90.0961 -53.1262 88.71C-53.1262 89.7001 -53.1262 90.1951 -53.1262 91.1852C-29.3299 92.5713 -28.9899 86.7299 -11.4826 83.0666C1.77537 80.3934 16.7331 81.5815 30.501 80.6904C58.2067 78.8092 85.0626 74.4529 111.918 69.9975C218.492 52.3741 327.955 44.7505 437.419 34.3547C475.153 30.7904 507.278 26.0381 541.443 38.117C572.888 49.3049 596.854 69.1066 632.039 76.7302C652.776 81.2845 670.963 79.7004 689.83 86.631C705.807 92.4725 711.077 95.9377 731.983 96.6308C785.015 98.512 837.537 87.027 890.399 91.9775C938.502 96.5318 983.715 112.967 1028.59 123.363C1066.83 132.175 1099.81 133.066 1139.92 133.957C1202.47 135.442 1261.62 141.085 1320.94 128.016C1346.27 122.373 1372.79 124.551 1397.77 119.106C1433.47 111.383 1453.86 95.6408 1493.13 91.0865C1492.96 90.1954 1492.96 89.7004 1492.96 88.6113Z" fill="url(#paint46_linear_55_34)"/>
<path d="M1493.66 79.9248C1456.42 83.6866 1433.29 97.051 1398.6 103.387C1371.56 108.337 1346.4 106.852 1320.89 115.266C1293 124.473 1274.97 129.72 1242.15 129.225C1205.93 128.631 1170.22 126.156 1134.17 124.77C1094.21 123.186 1061.56 122.691 1023.47 113.286C980.615 102.595 937.252 85.4684 890.488 80.8156C839.303 75.6678 791.688 91.1112 740.843 89.7252C719.247 89.1312 708.873 85.0724 691.018 79.2317C670.272 72.4999 650.036 73.8859 628.269 69.0351C593.579 61.3134 570.452 41.6132 539.502 30.4266C506.342 18.4481 473.693 22.8039 436.621 25.0809C379.654 28.7437 322.517 33.1985 265.38 36.0694C211.814 38.6432 163.859 47.6519 112.674 57.0565C85.6356 62.0063 58.5975 67.055 30.539 69.2329C16.7649 70.3219 1.63029 69.0349 -11.4637 71.8068C-28.9789 75.4697 -29.319 81.3104 -53.1262 79.9245C-53.1262 80.9144 -53.1262 81.4094 -53.1262 82.3994C-29.319 83.7853 -28.9789 77.9446 -11.4637 74.2817C1.80035 71.6088 16.9349 72.7968 30.539 71.7078C58.5975 69.6289 85.4656 64.7781 112.504 59.9274C219.466 40.7222 325.918 34.9804 436.962 27.0608C474.203 24.3879 506.683 20.0321 540.183 32.0106C571.302 43.1971 594.599 62.9963 629.46 70.619C650.886 75.3708 670.612 73.9849 691.018 80.7166C708.363 86.5573 717.546 90.4182 738.972 91.1112C790.328 92.5961 839.133 78.1427 890.828 83.2905C937.933 87.9433 981.636 104.872 1025 115.464C1063.09 124.77 1095.74 125.364 1135.87 126.75C1171.58 128.037 1207.12 130.314 1242.83 130.809C1274.8 131.304 1293.51 126.651 1321.23 118.236C1346.74 110.514 1372.24 112.197 1398.77 107.05C1433.8 100.318 1456.08 86.3595 1494 82.4987C1493.66 81.4097 1493.66 80.9147 1493.66 79.9248Z" fill="url(#paint47_linear_55_34)"/>
<path d="M1493.83 71.9051C1457.78 74.8769 1432.1 86.5658 1397.75 91.6178C1367.48 96.0754 1344.87 95.7782 1318.85 106.873C1289.94 119.156 1274.29 125.496 1236.54 124.604C1198.62 123.713 1161.04 120.147 1123.12 118.364C1087.41 116.68 1057.14 115.788 1023.47 107.467C980.275 96.6697 939.803 79.3344 893.549 73.589C841.854 67.1502 799.341 86.7638 748.325 85.6741C725.368 85.1788 711.764 80.325 691.698 74.5796C668.911 67.9427 645.274 69.8248 622.657 64.0794C588.307 55.4613 565.69 35.3524 534.231 24.0597C501.751 12.4699 463.149 17.9181 427.099 19.2058C371.492 21.187 315.715 22.2766 260.108 24.9512C210.453 27.3286 165.05 37.2344 118.115 46.744C90.397 52.2913 62.3386 58.2348 33.2598 60.9094C18.8055 62.1971 2.82065 60.9094 -10.9535 63.7821C-28.6388 67.4472 -29.149 73.3908 -53.1262 72.0039C-53.1262 72.9945 -53.1262 73.4898 -53.1262 74.4804C-29.149 75.8672 -28.6388 69.9237 -10.9535 66.2585C2.82065 63.3859 18.8055 64.7727 33.2598 63.4849C62.1685 60.9094 90.227 55.164 117.945 49.7158C164.88 40.5034 210.113 31.0928 259.598 28.5173C315.375 25.6446 371.322 23.6635 427.269 21.2861C463.489 19.7011 502.091 13.9558 534.741 25.6447C566.37 36.9373 588.987 57.0462 623.678 65.6643C646.125 71.3106 669.081 69.3295 691.358 76.0655C710.744 81.9099 723.158 86.4666 745.775 87.061C797.13 88.3487 841.513 69.7257 893.549 76.1646C940.313 81.91 981.296 99.0471 1025 109.745C1058.84 117.967 1089.11 118.958 1124.99 120.444C1162.4 122.029 1199.64 125.397 1237.22 126.189C1274.29 126.982 1290.11 121.335 1319.19 109.845C1345.21 99.4434 1368.5 100.038 1397.92 95.481C1432.44 90.1319 1457.44 77.8486 1494 74.5797C1493.83 73.391 1493.83 72.8957 1493.83 71.9051Z" fill="url(#paint48_linear_55_34)"/>
<path d="M1493.66 63.3549C1459.14 65.5328 1431.43 74.7394 1397.93 78.6003C1365.29 82.3622 1343.35 82.9561 1318.19 97.1126C1291.15 112.259 1273.98 120.971 1234.36 119.783C1194.91 118.595 1155.98 114.14 1116.87 111.863C1081.33 109.784 1051.24 108.992 1017.91 100.082C976.591 88.9948 937.994 70.9775 892.935 65.1367C841.585 58.4049 806.558 81.8671 756.909 81.3721C732.254 81.1741 714.571 75.3333 692.637 69.7895C668.322 63.6517 642.307 64.9387 618.672 58.9989C584.666 50.3862 562.902 30.2899 531.956 19.0043C500.5 7.52075 461.562 12.0746 426.196 12.1736C371.615 12.3715 316.185 10.5896 261.774 12.6685C211.444 14.5494 165.706 26.231 118.947 36.4276C91.2314 42.4664 62.836 49.0991 33.4204 52.069C18.9676 53.554 2.98454 52.267 -10.9581 55.1379C-28.6415 58.8008 -29.1516 64.7406 -53.1262 63.3546C-53.1262 64.3446 -53.1262 64.8395 -53.1262 65.8295C-29.1516 67.2155 -28.6415 61.2757 -10.9581 57.6128C2.8145 54.7419 18.9676 56.0289 33.4204 54.6429C62.666 51.772 91.0614 45.3373 118.777 39.4965C165.536 29.4979 211.274 18.4103 261.264 16.3314C316.014 14.0545 371.615 14.9454 426.536 14.2525C462.072 13.8565 501.01 9.00569 532.806 20.4893C563.922 31.7749 585.856 51.8711 620.033 60.4838C643.327 66.3246 668.662 64.9387 692.467 71.1754C713.891 76.8182 730.214 82.263 754.528 82.56C804.518 83.253 841.925 60.8798 893.275 67.5126C938.674 73.3534 977.781 91.1728 1019.78 102.161C1053.11 110.873 1083.2 111.665 1118.91 113.645C1157.68 115.724 1196.27 119.981 1235.21 121.07C1273.98 122.159 1291.32 114.437 1318.7 99.8845C1343.86 86.421 1366.48 86.322 1398.27 82.3622C1431.94 78.1053 1458.97 68.2057 1494 65.8298C1493.66 64.9388 1493.66 64.3448 1493.66 63.3549Z" fill="url(#paint49_linear_55_34)"/>
<path d="M1493.83 54.7843C1460.5 56.1725 1431.08 62.7165 1398.43 65.3936C1362.72 68.269 1342.48 70.9461 1317.83 87.3062C1291.81 104.459 1274.63 116.754 1232.29 115.168C1191.31 113.681 1151.01 108.227 1110.36 105.451C1074.82 102.972 1044.89 102.278 1012.24 92.8586C972.623 81.4561 936.232 62.7164 892.529 56.6681C840.833 49.43 814.985 77.0934 766.181 77.3909C739.653 77.5892 717.716 70.7477 693.739 65.2943C668.061 59.5435 639.152 60.4358 614.665 54.1893C581.165 45.563 560.249 25.4351 529.81 14.1318C499.37 2.82846 459.918 6.39793 425.398 5.30725C372.172 3.62166 316.905 -1.13765 263.509 0.250467C212.834 1.53944 166.24 15.1233 119.816 26.1291C91.9275 32.6732 63.1888 40.0104 33.5999 43.2824C19.1456 44.8689 2.9907 43.7782 -10.9535 46.6536C-28.6388 50.3222 -29.149 56.2713 -53.1262 54.8832C-53.1262 55.8747 -53.1262 56.3705 -53.1262 57.362C-29.149 58.7501 -28.6388 52.801 -10.9535 49.1324C2.9907 46.257 18.9755 47.4468 33.4299 45.8604C63.0188 42.5884 91.5874 35.5486 119.476 29.1037C166.07 18.2961 212.324 5.30721 262.999 3.81993C316.735 2.23351 372.002 6.10045 425.738 7.19114C460.599 7.98437 499.88 4.11744 530.66 15.4208C561.269 26.7241 582.525 46.852 616.025 55.4782C640.173 61.7248 668.231 60.6342 693.569 66.4841C717.036 71.9375 737.612 78.4815 763.63 78.3824C812.605 78.2833 841.343 51.9088 892.869 58.9486C936.912 64.9969 973.983 83.4392 1014.12 94.8417C1047.11 104.162 1077.03 104.856 1112.58 107.236C1152.88 109.913 1192.67 115.069 1233.14 116.457C1274.63 117.944 1291.81 106.74 1318.17 90.0824C1342.99 74.4164 1363.74 72.4334 1398.6 69.2605C1431.42 66.1868 1460.33 58.8496 1494 57.2631C1493.83 56.2716 1493.83 55.7758 1493.83 54.7843Z" fill="url(#paint50_linear_55_34)"/>
</g>
<defs>
<linearGradient id="paint0_linear_55_34" x1="1057.54" y1="439.605" x2="1054.09" y2="526.801" gradientUnits="userSpaceOnUse">
<stop stop-color="#36FF93"/>
<stop offset="0.862605" stop-color="#F8CEF4"/>
</linearGradient>
<linearGradient id="paint1_linear_55_34" x1="1057.54" y1="424.378" x2="1052.84" y2="526.146" gradientUnits="userSpaceOnUse">
<stop stop-color="#36FF93"/>
<stop offset="0.862605" stop-color="#F8CEF4"/>
</linearGradient>
<linearGradient id="paint2_linear_55_34" x1="1057.54" y1="409.192" x2="1051.34" y2="526.088" gradientUnits="userSpaceOnUse">
<stop stop-color="#36FF93"/>
<stop offset="0.862605" stop-color="#F8CEF4"/>
</linearGradient>
<linearGradient id="paint3_linear_55_34" x1="1057.54" y1="394.432" x2="1049.77" y2="525.261" gradientUnits="userSpaceOnUse">
<stop stop-color="#36FF93"/>
<stop offset="0.862605" stop-color="#F8CEF4"/>
</linearGradient>
<linearGradient id="paint4_linear_55_34" x1="1057.54" y1="380.604" x2="1048.17" y2="524.179" gradientUnits="userSpaceOnUse">
<stop stop-color="#36FF93"/>
<stop offset="0.862605" stop-color="#F8CEF4"/>
</linearGradient>
<linearGradient id="paint5_linear_55_34" x1="1057.29" y1="367.157" x2="1046.44" y2="521.717" gradientUnits="userSpaceOnUse">
<stop stop-color="#36FF93"/>
<stop offset="0.862605" stop-color="#F8CEF4"/>
</linearGradient>
<linearGradient id="paint6_linear_55_34" x1="1057.54" y1="354.601" x2="1045.34" y2="518.392" gradientUnits="userSpaceOnUse">
<stop stop-color="#36FF93"/>
<stop offset="0.862605" stop-color="#F8CEF4"/>
</linearGradient>
<linearGradient id="paint7_linear_55_34" x1="1058.17" y1="342.935" x2="1044.82" y2="514.215" gradientUnits="userSpaceOnUse">
<stop stop-color="#36FF93"/>
<stop offset="0.862605" stop-color="#F8CEF4"/>
</linearGradient>
<linearGradient id="paint8_linear_55_34" x1="1058.17" y1="333.051" x2="1044.18" y2="508.358" gradientUnits="userSpaceOnUse">
<stop stop-color="#36FF93"/>
<stop offset="0.862605" stop-color="#F8CEF4"/>
</linearGradient>
<linearGradient id="paint9_linear_55_34" x1="1057.29" y1="324.481" x2="1043.12" y2="500.938" gradientUnits="userSpaceOnUse">
<stop stop-color="#36FF93"/>
<stop offset="0.862605" stop-color="#F8CEF4"/>
</linearGradient>
<linearGradient id="paint10_linear_55_34" x1="1057.54" y1="316.207" x2="1043.64" y2="490.938" gradientUnits="userSpaceOnUse">
<stop stop-color="#36FF93"/>
<stop offset="0.862605" stop-color="#F8CEF4"/>
</linearGradient>
<linearGradient id="paint11_linear_55_34" x1="1057.29" y1="307.806" x2="1043.95" y2="479.086" gradientUnits="userSpaceOnUse">
<stop stop-color="#36FF93"/>
<stop offset="0.862605" stop-color="#F8CEF4"/>
</linearGradient>
<linearGradient id="paint12_linear_55_34" x1="1057.54" y1="299.743" x2="1045.07" y2="465.263" gradientUnits="userSpaceOnUse">
<stop stop-color="#36FF93"/>
<stop offset="0.862605" stop-color="#F8CEF4"/>
</linearGradient>
<linearGradient id="paint13_linear_55_34" x1="1057.29" y1="292.147" x2="1045.78" y2="451.325" gradientUnits="userSpaceOnUse">
<stop stop-color="#36FF93"/>
<stop offset="0.862605" stop-color="#F8CEF4"/>
</linearGradient>
<linearGradient id="paint14_linear_55_34" x1="1057.29" y1="284.34" x2="1046.11" y2="441.21" gradientUnits="userSpaceOnUse">
<stop stop-color="#36FF93"/>
<stop offset="0.862605" stop-color="#F8CEF4"/>
</linearGradient>
<linearGradient id="paint15_linear_55_34" x1="1058.17" y1="276.576" x2="1047.23" y2="431.713" gradientUnits="userSpaceOnUse">
<stop stop-color="#36FF93"/>
<stop offset="0.862605" stop-color="#F8CEF4"/>
</linearGradient>
<linearGradient id="paint16_linear_55_34" x1="1057.54" y1="269.278" x2="1046.92" y2="422.104" gradientUnits="userSpaceOnUse">
<stop stop-color="#36FF93"/>
<stop offset="0.862605" stop-color="#F8CEF4"/>
</linearGradient>
<linearGradient id="paint17_linear_55_34" x1="1057.54" y1="261.98" x2="1047.24" y2="412.495" gradientUnits="userSpaceOnUse">
<stop stop-color="#36FF93"/>
<stop offset="0.862605" stop-color="#F8CEF4"/>
</linearGradient>
<linearGradient id="paint18_linear_55_34" x1="1057.54" y1="254.682" x2="1047.56" y2="402.884" gradientUnits="userSpaceOnUse">
<stop stop-color="#36FF93"/>
<stop offset="0.862605" stop-color="#F8CEF4"/>
</linearGradient>
<linearGradient id="paint19_linear_55_34" x1="1058.17" y1="246.917" x2="1048.42" y2="393.386" gradientUnits="userSpaceOnUse">
<stop stop-color="#36FF93"/>
<stop offset="0.862605" stop-color="#F8CEF4"/>
</linearGradient>
<linearGradient id="paint20_linear_55_34" x1="1057.54" y1="240.129" x2="1048.1" y2="384.282" gradientUnits="userSpaceOnUse">
<stop stop-color="#36FF93"/>
<stop offset="0.862605" stop-color="#F8CEF4"/>
</linearGradient>
<linearGradient id="paint21_linear_55_34" x1="1057.29" y1="232.364" x2="1048.08" y2="374.782" gradientUnits="userSpaceOnUse">
<stop stop-color="#36FF93"/>
<stop offset="0.862605" stop-color="#F8CEF4"/>
</linearGradient>
<linearGradient id="paint22_linear_55_34" x1="1058.17" y1="224.133" x2="1049.11" y2="365.393" gradientUnits="userSpaceOnUse">
<stop stop-color="#36FF93"/>
<stop offset="0.862605" stop-color="#F8CEF4"/>
</linearGradient>
<linearGradient id="paint23_linear_55_34" x1="1057.54" y1="216.411" x2="1048.62" y2="356.513" gradientUnits="userSpaceOnUse">
<stop stop-color="#36FF93"/>
<stop offset="0.862605" stop-color="#F8CEF4"/>
</linearGradient>
<linearGradient id="paint24_linear_55_34" x1="1057.54" y1="208.265" x2="1048.62" y2="348.367" gradientUnits="userSpaceOnUse">
<stop stop-color="#36FF93"/>
<stop offset="0.862605" stop-color="#F8CEF4"/>
</linearGradient>
<linearGradient id="paint25_linear_55_34" x1="1058.17" y1="199.61" x2="1049.26" y2="339.712" gradientUnits="userSpaceOnUse">
<stop stop-color="#36FF93"/>
<stop offset="0.862605" stop-color="#F8CEF4"/>
</linearGradient>
<linearGradient id="paint26_linear_55_34" x1="1057.29" y1="190.955" x2="1048.38" y2="331.057" gradientUnits="userSpaceOnUse">
<stop stop-color="#36FF93"/>
<stop offset="0.862605" stop-color="#F8CEF4"/>
</linearGradient>
<linearGradient id="paint27_linear_55_34" x1="1058.17" y1="183.105" x2="1049.62" y2="320.312" gradientUnits="userSpaceOnUse">
<stop stop-color="#36FF93"/>
<stop offset="0.862605" stop-color="#F8CEF4"/>
</linearGradient>
<linearGradient id="paint28_linear_55_34" x1="1057.54" y1="174.746" x2="1049.35" y2="309.055" gradientUnits="userSpaceOnUse">
<stop stop-color="#36FF93"/>
<stop offset="0.862605" stop-color="#F8CEF4"/>
</linearGradient>
<linearGradient id="paint29_linear_55_34" x1="1057.54" y1="167.321" x2="1049.84" y2="297.57" gradientUnits="userSpaceOnUse">
<stop stop-color="#36FF93"/>
<stop offset="0.862605" stop-color="#F8CEF4"/>
</linearGradient>
<linearGradient id="paint30_linear_55_34" x1="1057.54" y1="159.343" x2="1050.38" y2="284.951" gradientUnits="userSpaceOnUse">
<stop stop-color="#36FF93"/>
<stop offset="0.862605" stop-color="#F8CEF4"/>
</linearGradient>
<linearGradient id="paint31_linear_55_34" x1="1057.54" y1="151.833" x2="1050.96" y2="272.214" gradientUnits="userSpaceOnUse">
<stop stop-color="#36FF93"/>
<stop offset="0.862605" stop-color="#F8CEF4"/>
</linearGradient>
<linearGradient id="paint32_linear_55_34" x1="1057.54" y1="143.77" x2="1051.58" y2="258.34" gradientUnits="userSpaceOnUse">
<stop stop-color="#36FF93"/>
<stop offset="0.862605" stop-color="#F8CEF4"/>
</linearGradient>
<linearGradient id="paint33_linear_55_34" x1="1057.29" y1="135.666" x2="1051.28" y2="250.818" gradientUnits="userSpaceOnUse">
<stop stop-color="#36FF93"/>
<stop offset="0.862605" stop-color="#F8CEF4"/>
</linearGradient>
<linearGradient id="paint34_linear_55_34" x1="1057.29" y1="128.157" x2="1051.1" y2="245.053" gradientUnits="userSpaceOnUse">
<stop stop-color="#36FF93"/>
<stop offset="0.862605" stop-color="#F8CEF4"/>
</linearGradient>
<linearGradient id="paint35_linear_55_34" x1="1057.54" y1="121.072" x2="1051.28" y2="238.549" gradientUnits="userSpaceOnUse">
<stop stop-color="#36FF93"/>
<stop offset="0.862605" stop-color="#F8CEF4"/>
</linearGradient>
<linearGradient id="paint36_linear_55_34" x1="1057.54" y1="113.012" x2="1051.15" y2="231.651" gradientUnits="userSpaceOnUse">
<stop stop-color="#36FF93"/>
<stop offset="0.862605" stop-color="#F8CEF4"/>
</linearGradient>
<linearGradient id="paint37_linear_55_34" x1="1058.17" y1="105.926" x2="1051.72" y2="225.147" gradientUnits="userSpaceOnUse">
<stop stop-color="#36FF93"/>
<stop offset="0.862605" stop-color="#F8CEF4"/>
</linearGradient>
<linearGradient id="paint38_linear_55_34" x1="1057.29" y1="97.8658" x2="1050.72" y2="218.248" gradientUnits="userSpaceOnUse">
<stop stop-color="#36FF93"/>
<stop offset="0.862605" stop-color="#F8CEF4"/>
</linearGradient>
<linearGradient id="paint39_linear_55_34" x1="1058.17" y1="90.2713" x2="1051.53" y2="211.235" gradientUnits="userSpaceOnUse">
<stop stop-color="#36FF93"/>
<stop offset="0.862605" stop-color="#F8CEF4"/>
</linearGradient>
<linearGradient id="paint40_linear_55_34" x1="1057.54" y1="82.2103" x2="1050.77" y2="204.335" gradientUnits="userSpaceOnUse">
<stop stop-color="#36FF93"/>
<stop offset="0.862605" stop-color="#F8CEF4"/>
</linearGradient>
<linearGradient id="paint41_linear_55_34" x1="1057.54" y1="74.1925" x2="1050.58" y2="198.059" gradientUnits="userSpaceOnUse">
<stop stop-color="#36FF93"/>
<stop offset="0.862605" stop-color="#F8CEF4"/>
</linearGradient>
<linearGradient id="paint42_linear_55_34" x1="1057.29" y1="65.5799" x2="1050.27" y2="190.027" gradientUnits="userSpaceOnUse">
<stop stop-color="#36FF93"/>
<stop offset="0.862605" stop-color="#F8CEF4"/>
</linearGradient>
<linearGradient id="paint43_linear_55_34" x1="1057.54" y1="57.9427" x2="1050.51" y2="182.39" gradientUnits="userSpaceOnUse">
<stop stop-color="#36FF93"/>
<stop offset="0.862605" stop-color="#F8CEF4"/>
</linearGradient>
<linearGradient id="paint44_linear_55_34" x1="1058.17" y1="49.8394" x2="1051.08" y2="174.867" gradientUnits="userSpaceOnUse">
<stop stop-color="#36FF93"/>
<stop offset="0.862605" stop-color="#F8CEF4"/>
</linearGradient>
<linearGradient id="paint45_linear_55_34" x1="1057.29" y1="43.6873" x2="1050.27" y2="168.135" gradientUnits="userSpaceOnUse">
<stop stop-color="#36FF93"/>
<stop offset="0.862605" stop-color="#F8CEF4"/>
</linearGradient>
<linearGradient id="paint46_linear_55_34" x1="1057.54" y1="37.5357" x2="1050.58" y2="161.402" gradientUnits="userSpaceOnUse">
<stop stop-color="#36FF93"/>
<stop offset="0.862605" stop-color="#F8CEF4"/>
</linearGradient>
<linearGradient id="paint47_linear_55_34" x1="1058.17" y1="31.4686" x2="1051.14" y2="155.916" gradientUnits="userSpaceOnUse">
<stop stop-color="#36FF93"/>
<stop offset="0.862605" stop-color="#F8CEF4"/>
</linearGradient>
<linearGradient id="paint48_linear_55_34" x1="1058.17" y1="25.9534" x2="1051.01" y2="151.562" gradientUnits="userSpaceOnUse">
<stop stop-color="#36FF93"/>
<stop offset="0.862605" stop-color="#F8CEF4"/>
</linearGradient>
<linearGradient id="paint49_linear_55_34" x1="1058.17" y1="20.3956" x2="1050.94" y2="146.584" gradientUnits="userSpaceOnUse">
<stop stop-color="#36FF93"/>
<stop offset="0.862605" stop-color="#F8CEF4"/>
</linearGradient>
<linearGradient id="paint50_linear_55_34" x1="1058.17" y1="9.74836" x2="1050.05" y2="143.478" gradientUnits="userSpaceOnUse">
<stop stop-color="#36FF93"/>
<stop offset="0.862605" stop-color="#F8CEF4"/>
</linearGradient>
</defs>
</svg>
