<svg width="123" height="123" viewBox="0 0 123 123" fill="none" xmlns="http://www.w3.org/2000/svg">
<circle cx="61.5" cy="61.5" r="61.5" fill="#35FF92"/>
<path d="M29.8201 68.4756C31.3361 68.4756 32.5162 69.6471 33.2316 70.9857C33.7015 71.8648 34.349 72.4969 35.1741 72.8818C36.6433 73.5672 38.4063 73.9099 40.4631 73.9099C42.9117 73.9099 44.6503 73.6162 45.6787 73.0287C46.7561 72.3922 47.2948 71.3886 47.2948 70.0178C47.2948 69.0386 46.952 68.1818 46.2663 67.4475C45.6297 66.7131 44.3809 66.199 42.5199 65.9053L37.2309 65.024C32.5786 64.2897 29.1015 63.0412 26.7998 61.2788C24.5471 59.4673 23.4207 56.7501 23.4207 53.1272C23.4207 51.2668 23.8125 49.6023 24.5961 48.1335C25.4286 46.6648 26.5794 45.4164 28.0486 44.3882C29.5178 43.3601 31.2563 42.5768 33.2642 42.0383C35.321 41.4508 37.5737 41.157 40.0224 41.157C43.0586 41.157 45.6052 41.4752 47.6621 42.1117C49.7189 42.6992 51.384 43.507 52.6572 44.5351C53.9795 45.5632 54.9589 46.7872 55.5956 48.207C55.821 48.6739 56.0253 49.1514 56.2084 49.6394C56.8269 51.2882 55.5995 52.9476 53.8551 53.1708L50.5857 53.5891C49.0437 53.7865 47.6882 52.7299 46.8319 51.4305C46.4664 50.8758 46.0331 50.4133 45.5318 50.0429C44.4544 49.2106 42.6914 48.7945 40.2427 48.7945C38.8715 48.7945 37.7207 48.9169 36.7902 49.1617C35.9087 49.3575 35.1986 49.6268 34.6599 49.9695C34.1702 50.3122 33.8029 50.7038 33.558 51.1445C33.3621 51.5851 33.2642 52.0012 33.2642 52.3929C33.2642 53.6168 33.6315 54.5226 34.3661 55.11C35.1496 55.6486 36.6433 56.1137 38.847 56.5053L43.6953 57.3132C46.3888 57.7538 48.617 58.3168 50.38 59.0022C52.143 59.6876 53.5387 60.5444 54.5672 61.5725C55.6445 62.5517 56.3791 63.7267 56.7709 65.0975C57.2117 66.4683 57.432 68.0594 57.432 69.8709C57.432 73.4938 56.0608 76.4068 53.3184 78.6099C50.5759 80.764 46.3398 81.8411 40.61 81.8411C38.3083 81.8411 36.1046 81.6208 33.9988 81.1802C31.9419 80.7885 30.081 80.0786 28.4159 79.0505C26.7998 78.0224 25.4531 76.6516 24.3757 74.938C23.8069 73.9903 23.3729 72.9077 23.0737 71.6904C22.6524 69.976 24.0971 68.4756 25.86 68.4756H29.8201Z" fill="#212121"/>
<path fill-rule="evenodd" clip-rule="evenodd" d="M61.5582 27.0108C53.9331 27.0108 46.8922 29.4904 41.1875 33.689C40.2964 34.3448 39.0432 34.153 38.3883 33.2606C37.7334 32.3681 37.9249 31.1129 38.816 30.4571C45.1849 25.7696 53.0515 23 61.5582 23C82.789 23 100 40.237 100 61.5C100 82.763 82.789 100 61.5582 100C53.0515 100 45.1849 97.2304 38.816 92.5429C37.9249 91.8871 37.7334 90.6319 38.3883 89.7394C39.0432 88.847 40.2964 88.6552 41.1875 89.311C46.8922 93.5096 53.9331 95.9892 61.5582 95.9892C80.5773 95.9892 95.9953 80.5479 95.9953 61.5C95.9953 42.4521 80.5773 27.0108 61.5582 27.0108Z" fill="#212121"/>
</svg>
