<svg width="1440" height="293" viewBox="0 0 1440 293" fill="none" xmlns="http://www.w3.org/2000/svg">
<g opacity="0.3">
<path d="M1494.66 249.146C1431.74 252.81 1384.64 288.161 1329.03 253.998C1306.07 239.937 1293.15 229.836 1256.25 232.213C1229.72 233.896 1207.1 243.402 1181.94 247.561C1124.29 257.167 1055.25 250.532 995.899 251.423C967.161 251.819 950.836 254.592 926.348 262.514C908.493 268.158 890.978 275.486 869.381 274.694C844.894 273.803 818.706 261.524 799.49 253.602C768.371 240.828 738.952 226.766 708.853 213.299C666.17 194.187 629.439 175.868 575.023 174.977C527.748 174.185 477.243 170.818 430.479 175.67C409.733 177.848 388.476 179.631 367.9 181.809C310.763 187.751 264.849 222.805 224.207 245.284C181.184 269.049 137.141 301.826 74.3917 284.794C30.1784 272.812 -3.4918 255.087 -52.1265 249.344C-52.1265 250.433 -52.1265 250.928 -52.1265 252.017C-3.1517 257.86 30.8585 275.882 75.2419 287.963C138.331 305.193 182.204 272.119 225.227 248.155C265.869 225.578 311.613 190.127 369.091 184.285C389.327 182.205 410.073 180.522 430.479 178.443C476.903 173.689 527.578 176.66 574.682 177.353C629.439 178.146 666.51 196.861 709.193 215.973C739.632 229.638 769.391 243.699 800.851 256.672C820.066 264.594 846.254 276.972 870.912 277.863C892.508 278.655 910.024 271.327 927.709 265.584C952.366 257.563 968.351 254.889 997.09 254.394C1056.1 253.503 1125.48 259.84 1182.62 250.136C1207.78 245.878 1230.23 236.372 1256.59 234.589C1293.66 232.114 1306.41 242.412 1329.37 256.573C1384.64 290.934 1432.08 255.681 1495 252.018C1494.66 250.829 1494.66 250.235 1494.66 249.146Z" fill="url(#paint0_linear_29_614)"/>
<path d="M1494.13 240.556C1430.9 244.324 1385.68 280.123 1328.23 246.704C1304.95 233.119 1291.69 223.698 1255.31 225.88C1228.8 227.466 1205.34 236.589 1180.01 240.556C1120.52 249.977 1052.36 242.043 991.514 242.638C963.128 242.936 945.79 245.911 921.144 253.249C903.127 258.604 884.6 265.744 863.183 264.95C808.452 262.868 747.771 223.499 708.167 205.65C665.843 186.61 630.829 169.95 577.457 168.364C529.014 166.975 479.042 162.116 430.77 167.273C408.333 169.653 385.556 171.834 363.29 174.214C306.689 180.263 260.966 213.781 220.002 235.697C176.828 258.802 132.805 290.535 70.7647 274.073C27.7613 262.67 -5.04368 246.01 -52.1265 240.357C-52.1265 241.448 -52.1265 241.944 -52.1265 243.035C-4.53375 248.786 28.6112 265.744 71.9545 277.445C134.165 294.105 178.188 261.975 221.362 238.672C262.325 216.558 308.048 182.445 364.82 176.396C386.576 174.115 408.673 172.132 430.6 169.752C478.362 164.695 528.335 169.058 576.437 170.248C630.319 171.537 665.843 188.891 708.337 207.931C737.572 221.12 766.128 234.804 796.383 247.2C815.421 255.034 841.087 267.132 865.393 268.025C886.81 268.818 904.997 261.579 923.014 256.125C947.66 248.588 964.658 245.712 993.043 245.316C1053.38 244.523 1121.88 252.059 1180.69 242.539C1206.02 238.473 1229.14 229.251 1255.65 227.565C1292.2 225.285 1305.29 235.003 1328.4 248.687C1385.17 282.404 1431.07 246.704 1494.13 243.035C1494.13 242.143 1494.13 241.647 1494.13 240.556Z" fill="url(#paint1_linear_29_614)"/>
<path d="M1494.13 232.429C1430.73 236.292 1387.21 272.55 1327.72 240.453C1303.93 227.574 1290.16 218.956 1254.63 220.937C1227.78 222.423 1203.64 230.943 1177.97 234.707C1116.44 243.722 1048.62 234.311 986.074 234.509C958.539 234.608 938.822 237.382 914.515 244.515C896.498 249.765 876.271 256.402 855.364 255.511C802.502 253.331 745.731 216.38 707.317 199.043C665.843 180.221 632.869 165.658 580.857 163.38C530.544 161.2 481.422 154.365 430.94 160.011C406.293 162.785 381.647 165.262 357.171 167.937C301.079 173.98 255.866 205.383 214.223 226.683C171.049 248.774 126.686 279.088 66.1754 263.535C24.7018 252.935 -6.91339 237.481 -52.1265 232.23C-52.1265 233.32 -52.1265 233.815 -52.1265 234.905C-6.2335 240.255 25.7216 256.105 67.7052 267.002C128.726 282.853 172.919 252.043 216.092 229.655C257.566 208.157 302.949 175.961 359.21 169.918C383.007 167.342 406.973 165.064 430.77 162.389C480.402 156.841 529.864 163.082 579.497 164.965C632.019 166.946 665.674 182.301 707.487 201.124C746.241 218.658 804.372 256.402 857.914 258.582C878.821 259.374 898.878 252.737 916.555 247.288C940.691 239.958 960.068 237.283 987.774 237.085C1049.81 236.688 1117.63 245.604 1178.48 236.49C1204.15 232.627 1227.95 223.909 1254.8 222.423C1290.5 220.442 1304.27 229.258 1327.89 242.335C1386.53 274.829 1430.73 238.769 1494.13 234.905C1494.13 234.113 1494.13 233.518 1494.13 232.429Z" fill="url(#paint2_linear_29_614)"/>
<path d="M1493.96 223.809C1430.22 227.973 1388.74 264.655 1327.04 234.119C1302.57 222.024 1288.12 214.39 1253.61 216.076C1226.42 217.464 1201.6 225.395 1175.26 228.865C1111.35 237.391 1043.53 226.188 979.105 225.791C951.57 225.593 930.833 228.468 906.017 234.912C887.49 239.77 866.413 246.016 845.336 245.124C794.684 242.943 742.502 208.838 705.957 192.083C665.503 173.544 634.908 161.449 584.766 158.375C532.074 155.203 484.311 146.082 430.94 152.328C403.744 155.5 376.888 158.574 349.692 161.449C294.11 167.397 249.237 196.445 207.084 216.968C164.25 237.787 119.547 266.439 60.5663 251.964C20.9623 242.249 -9.12305 228.171 -52.1265 223.61C-52.1265 224.701 -52.1265 225.196 -52.1265 226.287C-8.44316 231.046 22.1522 245.619 62.436 255.633C121.927 270.405 166.46 241.257 209.463 220.041C251.447 199.221 296.49 169.38 352.242 163.432C378.588 160.556 404.594 157.781 430.94 154.707C483.291 148.56 531.564 156.987 583.406 159.863C634.228 162.638 665.504 175.626 706.467 194.264C743.692 211.218 797.403 246.313 848.735 248.495C869.812 249.387 890.549 242.943 908.906 237.986C933.552 231.244 953.949 228.468 981.485 228.567C1045.4 228.766 1113.04 239.374 1176.28 230.649C1202.45 227.08 1227.1 218.852 1253.95 217.464C1288.8 215.679 1303.08 223.61 1327.38 236.003C1388.23 267.034 1430.39 230.55 1494.13 226.485C1493.96 225.395 1493.96 224.899 1493.96 223.809Z" fill="url(#paint3_linear_29_614)"/>
<path d="M1494.13 215.34C1430.05 219.802 1390.78 256.786 1326.7 228.329C1302.23 217.422 1285.91 209.886 1252.76 212.068C1225.23 213.852 1199.73 220.496 1172.71 223.768C1106.25 231.7 1038.26 218.612 971.627 217.422C923.014 216.529 881.03 237.054 834.118 234.873C786.185 232.691 739.272 201.756 704.598 185.792C665.504 167.746 637.288 158.128 589.525 154.261C533.774 149.799 488.391 138.297 430.94 145.238C400.854 148.907 371.449 152.476 341.193 155.748C286.292 161.598 241.928 187.973 198.755 207.605C156.092 227.04 111.049 253.613 54.1072 240.524C16.713 231.898 -11.6727 219.306 -52.1265 215.439C-52.1265 216.529 -52.1265 217.025 -52.1265 218.116C-10.8228 222.28 18.0728 235.269 56.3169 244.292C113.938 257.876 158.811 230.609 201.475 210.679C244.308 190.749 288.841 163.482 343.913 157.632C373.148 154.558 401.704 151.088 430.77 147.618C486.861 140.875 533.094 151.584 587.825 155.649C636.438 159.219 665.334 169.729 704.937 187.874C740.292 204.135 788.905 236.063 837.687 238.244C884.26 240.326 925.734 219.504 974.006 220.099C1039.96 220.991 1107.78 233.485 1173.56 225.354C1200.41 222.082 1225.57 215.141 1253.1 213.357C1286.59 211.076 1302.74 219.008 1326.87 230.213C1390.1 259.364 1430.05 222.479 1494.13 218.116C1494.13 216.926 1494.13 216.43 1494.13 215.34Z" fill="url(#paint4_linear_29_614)"/>
<path d="M1494.13 206.642C1429.37 211.503 1392.82 248.706 1326.02 222.515C1301.04 212.693 1283.87 206.344 1251.57 208.13C1223.53 209.717 1197.18 215.669 1169.65 218.546C1100.3 225.689 1032.14 210.709 963.298 208.626C913.665 207.138 869.812 226.285 821.71 224.003C776.836 221.82 735.363 194.34 702.728 179.161C684.031 170.331 664.824 160.411 642.217 155.252C625.73 151.482 611.962 151.78 594.454 149.994C535.133 144.041 492.81 129.954 430.6 137.692C397.285 141.859 365.16 146.224 331.675 149.597C277.283 155.153 233.43 178.863 189.576 197.415C147.253 215.372 102.04 239.678 47.1383 228.07C12.1237 220.729 -14.3922 209.816 -52.1265 206.641C-52.1265 207.733 -52.1265 208.229 -52.1265 209.32C-13.5424 212.693 13.6535 224.201 49.518 232.039C105.099 244.142 150.312 219.042 192.636 200.59C236.149 181.641 280.173 157.137 334.734 151.383C367.029 148.01 398.304 143.942 430.6 139.875C491.11 132.335 534.624 145.629 592.755 151.184C610.602 152.871 624.03 152.673 640.857 156.542C664.144 161.899 683.861 172.117 703.238 181.145C736.383 196.622 779.726 225.193 825.619 227.376C873.212 229.658 916.555 210.015 965.847 211.304C1034.01 213.09 1102.17 227.475 1170.5 220.035C1197.86 217.058 1224.04 210.808 1251.91 209.221C1284.38 207.336 1301.38 214.082 1326.19 224.201C1392.14 251.186 1429.54 213.983 1494.13 209.32C1494.13 208.328 1494.13 207.733 1494.13 206.642Z" fill="url(#paint5_linear_29_614)"/>
<path d="M1494.13 198.644C1428.66 203.997 1394.99 241.072 1325.27 217.578C1269.66 198.842 1226.13 209.052 1166.27 214.306C1094.17 220.651 1025.46 203.699 954.043 200.626C903.368 198.445 857.624 216.091 808.14 213.712C766.477 211.729 730.596 187.739 700.497 173.464C683.662 165.434 666.317 156.512 645.741 151.952C629.926 148.483 615.812 148.879 599.147 146.797C570.238 143.328 544.56 134.108 516.162 129.846C486.913 125.385 458.854 127.367 429.775 131.035C393.214 135.695 358.184 140.949 321.283 144.517C267.547 149.771 224.013 170.688 179.46 188.135C137.287 204.591 92.2238 226.301 39.1678 216.388C6.34788 210.341 -18.1395 200.923 -53 198.643C-53 199.734 -53 200.229 -53 201.32C-17.1192 203.897 8.0484 213.711 41.5485 220.254C95.1146 230.762 140.518 208.16 182.521 191.208C226.904 173.464 270.437 151.655 324.344 146.302C360.055 142.733 394.235 137.776 429.775 133.315C458.344 129.647 486.233 127.962 514.971 132.027C543.2 136.091 568.877 144.616 597.446 147.987C614.281 149.97 628.395 149.573 644.38 153.142C665.637 157.9 683.492 167.119 701.007 175.447C731.787 190.019 769.538 215.099 812.221 217.181C861.196 219.56 906.429 201.419 956.764 203.402C1027.34 206.178 1095.87 222.534 1167.12 215.893C1227.32 210.242 1269.83 199.734 1325.44 219.362C1394.14 243.749 1428.83 206.574 1494.13 201.419C1494.13 200.23 1494.13 199.734 1494.13 198.644Z" fill="url(#paint6_linear_29_614)"/>
<path d="M1494.13 189.844C1454 193.406 1435.46 209.731 1399.08 216.756C1372.72 221.801 1348.92 218.734 1324.6 211.907C1268.66 196.176 1222.07 205.08 1162.9 209.434C1087.92 214.876 1018.55 196.077 944.921 191.921C893.401 189.052 845.112 205.674 794.782 202.706C756.015 200.43 726.769 180.741 698.714 167.087C665.898 151.059 643.793 148.585 604.856 143.045C574.93 138.79 549.425 128.104 520.18 122.861C489.574 117.32 460.498 119.793 429.722 123.85C389.765 128.995 351.678 135.129 311.38 138.889C258.33 143.737 215.141 161.942 169.913 178.069C127.235 193.207 83.8762 211.511 31.8462 203.794C1.58046 199.342 -21.0339 191.426 -53 189.942C-53 191.031 -53 191.525 -53 192.614C-20.1837 194.395 3.11075 202.904 34.0567 207.653C86.5967 215.766 129.955 196.868 172.803 181.137C217.862 164.614 261.05 145.617 314.44 140.67C353.718 137.009 390.785 131.172 429.722 126.126C459.988 122.168 488.724 119.892 518.82 125.037C547.725 129.984 573.4 140.175 602.986 144.232C642.943 149.575 665.558 152.84 699.054 169.066C727.96 183.017 759.076 203.794 798.863 206.07C848.853 208.939 896.462 191.921 947.642 194.593C1020.59 198.352 1089.62 216.657 1163.75 210.819C1223.09 206.169 1268.66 196.868 1324.6 213.589C1348.75 220.812 1372.38 224.077 1398.91 219.031C1435.13 212.204 1453.83 195.978 1493.79 192.515C1494.13 191.427 1494.13 190.833 1494.13 189.844Z" fill="url(#paint7_linear_29_614)"/>
<path d="M1493.96 181.719C1453.33 185.573 1435.32 202.571 1398.6 209.883C1372.94 215.022 1348.46 212.453 1323.81 206.82C1267.55 193.973 1217.92 201.582 1159.62 205.041C1081.94 209.587 1011.91 188.933 936.102 183.794C883.58 180.237 833.438 195.356 781.596 192.194C746.241 190.02 722.615 174.11 697.119 161.263C666.863 146.143 646.296 145.55 610.602 139.819C579.837 134.877 554.171 122.722 524.425 116.398C492.47 109.678 462.215 112.84 429.92 117.188C386.746 122.92 345.613 130.035 301.929 133.692C249.577 138.139 206.574 153.851 160.851 168.477C118.527 182.015 75.184 197.827 25.2117 191.799C-2.15412 188.439 -23.5708 182.608 -52.1265 181.818C-52.1265 182.905 -52.1265 183.399 -52.1265 184.486C-22.551 185.474 -0.794334 191.996 27.5913 195.653C78.0736 202.274 121.587 185.672 163.91 171.639C209.463 156.519 252.637 140.115 305.159 135.47C347.822 131.715 388.106 124.995 430.26 119.362C462.215 115.113 491.79 112.247 523.405 118.572C553.151 124.402 578.647 136.261 609.072 141.004C645.787 146.637 666.693 147.823 697.799 163.239C724.144 176.284 749.471 193.38 785.845 195.653C837.177 198.716 886.64 183.103 938.992 186.463C1014.29 191.305 1083.98 211.465 1160.81 206.523C1219.28 202.867 1267.89 194.862 1324.15 208.5C1348.63 214.528 1372.94 217.295 1398.77 212.156C1435.32 204.942 1453.5 188.143 1494.13 184.387C1493.96 183.3 1493.96 182.806 1493.96 181.719Z" fill="url(#paint8_linear_29_614)"/>
<path d="M1494.13 172.893C1452.82 177.049 1435.32 194.659 1398.43 202.376C1373.44 207.62 1348.29 205.443 1323.3 200.991C1266.7 190.999 1214.35 197.232 1156.56 199.903C1076.16 203.563 1005.62 181.006 927.433 174.872C873.722 170.618 821.88 184.271 768.848 181.105C736.553 179.126 718.875 166.462 695.419 154.59C667.713 140.541 648.506 141.53 616.041 135.693C584.256 129.955 558.59 116.5 528.165 108.98C495.36 100.868 463.404 105.023 429.92 109.574C383.687 115.807 339.324 123.92 292.411 127.679C240.909 131.736 197.735 145.092 151.502 158.349C109.349 170.42 66.5153 183.677 18.0728 179.324C-6.40347 177.147 -26.8003 173.19 -52.1265 172.992C-52.1265 174.08 -52.1265 174.575 -52.1265 175.663C-25.7805 176.059 -5.21365 180.511 20.2824 183.083C69.065 188.03 112.238 173.882 154.392 161.416C200.455 147.763 243.628 133.714 295.3 129.46C341.363 125.701 384.707 117.885 429.92 111.85C463.065 107.397 494.51 103.44 526.975 111.256C557.06 118.478 582.896 131.538 614.341 136.979C647.826 142.718 667.713 142.124 695.929 156.668C719.725 168.936 739.612 182.589 772.757 184.568C825.449 187.734 876.781 173.586 930.153 177.642C1007.66 183.479 1078.03 205.443 1157.58 201.585C1215.54 198.716 1267.04 192.087 1323.47 202.871C1348.29 207.62 1373.28 209.994 1398.43 204.751C1435.32 197.034 1452.99 179.621 1494.13 175.664C1494.13 174.476 1494.13 173.982 1494.13 172.893Z" fill="url(#paint9_linear_29_614)"/>
<path d="M1494.83 164.859C1453 169.316 1435.99 187.442 1398.75 195.664C1374.09 201.112 1348.59 199.13 1323.25 195.961C1266.11 188.829 1211.86 193.584 1154.05 195.466C1071.06 198.239 999.981 174.07 919.546 166.939C864.96 162.085 811.224 174.169 756.807 171.099C727.048 169.415 715.485 159.609 693.888 148.812C668.381 136.035 650.865 138.115 621.106 132.172C588.457 125.733 562.609 110.876 531.66 102.456C497.649 93.2444 464.829 98.0979 429.799 102.852C380.654 109.489 333.21 118.701 283.215 122.365C232.539 126.03 189.176 137.322 142.582 149.109C99.8994 159.708 58.747 170.009 11.3027 167.632C-10.2938 166.542 -30.1898 163.868 -52.1265 164.858C-52.1265 165.948 -52.1265 166.443 -52.1265 167.434C-29.1695 167.335 -9.27354 169.91 13.3433 171.297C60.9576 174.367 102.96 163.076 145.473 151.883C191.897 139.6 235.26 127.813 286.105 123.95C335.25 120.285 381.844 111.371 429.969 104.833C464.659 100.178 497.139 95.5226 530.809 104.437C561.589 112.559 587.436 127.021 619.746 133.261C650.525 139.204 668.211 137.52 694.569 150.595C717.015 161.689 729.939 172.486 760.719 174.169C814.625 177.24 867.851 164.76 922.267 169.415C1002.02 176.25 1072.93 200.022 1155.24 196.951C1213.05 194.772 1266.62 189.721 1323.59 197.645C1348.76 201.112 1374.09 203.192 1398.92 197.843C1436.16 189.721 1453.34 171.792 1495 167.434C1494.83 166.345 1494.83 165.849 1494.83 164.859Z" fill="url(#paint10_linear_29_614)"/>
<path d="M1494.13 156.27C1451.78 160.932 1435.29 179.678 1397.71 188.208C1373.39 193.762 1347.37 191.977 1322.03 189.894C1264.56 185.232 1208.44 188.704 1150.79 189.993C1065.43 191.977 994.005 166.189 911.531 158.254C856.264 152.898 800.827 163.312 745.391 160.535C718.352 159.246 711.21 152.203 691.995 141.987C669.718 130.184 651.862 133.16 625.164 127.506C591.664 120.365 565.987 104.198 534.357 94.8742C499.497 84.6581 465.486 90.1133 429.265 95.0726C329.955 108.76 229.455 117.885 134.056 139.111C90.3532 148.93 51.2414 155.873 4.30728 155.873C-14.9085 155.873 -33.7842 155.476 -53 156.27C-53 157.361 -53 157.857 -53 158.849C-33.104 157.956 -13.7182 159.146 6.00779 159.444C53.112 160.138 92.7339 152.203 136.097 142.086C230.475 120.166 329.955 110.942 428.925 97.3538C464.806 92.3946 498.476 87.1378 533.167 97.0563C564.626 106.082 590.304 121.853 623.634 128.796C651.352 134.548 668.868 131.771 692.165 143.971C712.061 154.385 720.563 162.221 748.452 163.61C803.548 166.486 858.475 155.576 913.571 160.733C995.366 168.47 1066.79 193.762 1151.3 191.58C1208.95 190.092 1264.56 186.224 1322.03 191.679C1347.37 194.06 1373.22 195.845 1397.71 190.39C1435.29 181.959 1451.95 163.411 1494.13 158.849C1494.13 157.857 1494.13 157.361 1494.13 156.27Z" fill="url(#paint11_linear_29_614)"/>
<path d="M1494.66 148.02C1451.98 152.868 1435.83 171.967 1397.91 180.773C1373.94 186.315 1347.41 184.83 1322.08 183.742C1264.27 181.169 1206.79 183.544 1148.98 184.336C1061.59 185.622 989.833 158.509 905.667 149.9C849.726 144.16 792.765 153.66 736.485 150.592C711.66 149.306 708.429 145.15 691.256 135.354C671.872 124.37 653.339 128.328 629.534 122.687C595.358 114.672 569.683 97.7511 537.546 87.6578C502.18 76.6739 467.153 82.6111 429.916 87.7567C376.016 95.1782 323.135 106.162 267.875 109.724C218.735 112.891 174.697 120.609 127.938 129.713C69.6169 140.994 9.2553 146.04 -52.1265 147.822C-52.1265 148.811 -52.1265 149.405 -52.1265 150.394C10.9556 148.316 69.4468 144.853 129.978 132.583C176.737 123.083 220.776 114.969 270.085 111.703C324.666 108.141 376.866 97.3552 430.086 90.0327C466.983 84.986 501.67 79.1477 537.036 89.9337C569.173 99.7301 594.847 116.354 628.684 124.172C653.339 129.911 671.532 126.052 691.936 137.333C709.449 147.03 714.04 152.374 739.545 153.462C795.486 155.936 852.107 146.634 907.877 152.275C991.533 160.686 1063.29 187.403 1150 185.919C1207.81 184.929 1264.95 182.258 1322.59 185.523C1347.92 186.909 1374.28 188.492 1398.42 182.95C1436.17 174.242 1452.49 155.243 1495 150.395C1494.66 149.603 1494.66 149.009 1494.66 148.02Z" fill="url(#paint12_linear_29_614)"/>
<path d="M1493.96 139.36C1450.78 144.304 1435.32 163.882 1397.07 172.881C1373.28 178.517 1346.42 177.132 1321.09 176.737C1262.79 176.045 1204.66 177.231 1146.53 177.726C1057.63 178.418 985.564 150.236 900.068 141.139C843.806 135.108 785.505 143.414 728.734 140.645C704.428 139.458 706.467 136.788 690.32 128.087C672.303 118.495 654.455 122.352 632.529 116.913C597.684 108.409 572.188 90.5116 539.383 79.8324C503.518 68.1643 467.654 74.6905 429.92 79.9312C374.168 87.644 319.097 99.3121 261.985 102.872C213.713 105.937 169.18 112.365 122.437 120.374C79.2634 127.691 38.2997 128.482 -4.70373 133.822C-21.3612 135.898 -34.2792 139.162 -52.1265 139.26C-52.1265 140.249 -52.1265 140.843 -52.1265 141.831C5.4947 140.941 69.7449 132.734 123.967 123.143C170.709 114.935 215.073 108.014 263.685 104.948C320.286 101.389 374.848 89.9183 429.92 82.3044C467.484 77.0636 503.178 70.7352 538.873 82.2055C571.508 92.687 597.004 110.288 631.679 118.693C654.455 124.23 671.793 120.473 690.49 130.262C707.487 139.063 706.127 142.326 730.774 143.512C787.375 146.38 845.336 137.777 901.597 143.71C986.754 152.709 1058.65 180.494 1147.04 179.703C1205.17 179.209 1263.13 177.627 1321.26 178.813C1346.76 179.407 1373.44 180.791 1397.24 175.155C1435.32 166.255 1451.12 146.776 1494.13 141.832C1493.96 140.843 1493.96 140.348 1493.96 139.36Z" fill="url(#paint13_linear_29_614)"/>
<path d="M1494.13 130.952C1450.61 135.899 1435.49 155.883 1397.07 165.084C1373.44 170.723 1346.25 169.239 1320.92 169.536C1262.28 170.229 1203.81 170.525 1145.17 170.723C1054.91 171.02 983.185 141.934 896.498 132.634C839.897 126.599 780.746 133.92 723.635 131.348C699.668 130.26 704.767 128.677 689.81 120.663C673.662 111.957 654.965 115.618 634.568 110.572C599.214 101.668 573.718 82.9696 540.743 71.889C504.878 59.8192 468.334 66.6456 430.26 71.988C373.148 80.0015 316.547 91.9724 257.906 95.6329C210.143 98.6009 165.27 104.339 118.697 111.264C91.1616 115.321 63.9657 119.377 35.92 121.257C21.4723 122.246 6.34458 121.454 -7.93323 123.73C-25.1006 126.5 -31.8996 131.249 -52.1265 130.853C-52.1265 131.842 -52.1265 132.436 -52.1265 133.425C-32.9194 133.623 -23.7408 129.666 -7.08336 126.797C6.8545 124.422 22.3221 125.412 36.7699 124.422C64.9856 122.543 92.1814 118.289 119.717 114.133C166.29 106.911 211.163 100.975 259.096 98.0073C317.057 94.3468 373.488 82.4749 430.09 74.5602C468.164 69.2178 504.538 62.5893 540.403 74.4613C573.378 85.4429 598.874 103.943 634.058 112.748C654.965 117.992 672.982 114.331 689.81 123.136C705.277 131.249 700.688 133.129 724.824 134.316C781.936 136.987 840.917 129.369 897.348 135.404C983.695 144.704 1055.59 173.493 1145.51 173.098C1203.98 172.801 1262.45 172.207 1320.92 171.911C1346.25 171.812 1373.28 173.197 1397.07 167.558C1435.32 158.456 1450.61 138.57 1494.13 133.623C1494.13 132.535 1494.13 132.041 1494.13 130.952Z" fill="url(#paint14_linear_29_614)"/>
<path d="M1494.13 122.212C1450.26 127.159 1435.64 147.442 1397.04 156.644C1373.4 162.284 1346.2 160.602 1320.86 161.394C1262.03 163.076 1203.2 162.68 1144.37 162.68C1053.23 162.68 981.988 132.997 894.421 123.795C837.801 117.858 778.119 124.883 720.818 122.212C695.653 121.024 704.155 119.243 689.532 112.614C673.039 105.094 655.356 108.063 635.462 103.017C599.585 94.0126 574.42 74.6196 540.924 63.241C505.217 51.0709 468.15 58.0959 430.403 63.4389C372.421 71.5523 314.78 83.7224 255.269 87.5812C208 90.6484 162.771 95.9914 116.352 102.225C88.9772 105.886 61.602 109.745 33.5466 111.526C19.2638 112.515 3.45082 111.328 -10.4919 114.098C-28.0052 117.561 -29.8756 123.3 -53 122.113C-53 123.102 -53 123.696 -53 124.685C-30.7257 125.576 -27.4951 120.134 -10.1518 116.869C3.79088 114.296 19.2638 115.285 33.7166 114.296C61.772 112.416 88.9772 108.656 116.522 104.797C162.941 98.3661 208.17 93.0231 255.439 89.9558C314.78 86.097 372.081 74.0259 429.893 65.9125C467.81 60.5695 504.707 53.6435 540.584 65.8136C573.91 77.0932 599.245 96.2883 634.952 105.292C655.186 110.338 672.359 107.37 689.192 114.989C704.325 121.816 695.823 123.696 720.988 124.784C778.289 127.456 837.801 120.332 894.421 126.268C981.648 135.569 1053.23 165.054 1144.03 164.956C1202.86 164.857 1261.52 165.054 1320.35 163.669C1345.69 163.076 1372.89 164.659 1396.53 159.019C1435.13 149.817 1449.92 129.633 1493.62 124.685C1494.13 123.696 1494.13 123.201 1494.13 122.212Z" fill="url(#paint15_linear_29_614)"/>
<path d="M1494.13 114.281C1450.95 119.421 1435.32 139.289 1397.07 148.283C1373.28 153.917 1346.25 151.94 1320.92 153.225C1262.11 156.29 1202.96 154.807 1143.98 154.708C1107.78 154.609 1076.67 152.632 1042 145.812C993.213 136.224 945.791 121.101 894.798 115.764C838.027 109.833 778.876 117.444 721.595 114.479C697.289 113.194 704.597 111.316 689.98 104.891C673.152 97.5763 655.645 100.344 635.758 95.4017C599.894 86.5058 574.907 66.8359 541.423 55.4688C505.898 43.311 468.674 50.7243 430.94 55.8642C372.808 63.7717 315.187 75.2375 255.696 79.389C208.444 82.6508 163.231 87.8895 116.828 94.2155C89.4618 97.9716 62.096 101.826 34.0503 103.606C19.7725 104.495 3.62499 103.309 -9.97292 106.077C-27.6502 109.734 -28.1601 115.665 -52.1265 114.281C-52.1265 115.269 -52.1265 115.763 -52.1265 116.851C-28.1601 118.235 -27.6502 112.304 -9.97292 108.647C3.79497 105.879 19.7725 107.065 34.0503 106.176C61.9261 104.396 89.4618 100.542 116.828 96.8843C163.061 90.6571 208.444 85.4184 255.526 82.1566C315.017 78.104 372.808 66.3416 430.94 58.2364C468.674 52.9977 505.728 45.7821 541.423 57.8411C574.907 69.2081 599.894 88.7792 635.758 97.774C655.645 102.716 673.322 99.8497 689.98 107.263C704.428 113.787 696.439 115.566 721.255 116.752C778.536 119.618 838.027 112.304 894.628 118.235C945.791 123.572 993.213 138.695 1042.17 148.184C1076.67 154.906 1107.95 157.08 1144.15 157.08C1203.13 157.08 1262.11 158.168 1320.92 155.697C1346.25 154.609 1373.44 156.487 1397.07 150.952C1435.49 141.858 1450.61 121.793 1494.13 116.653C1494.13 115.764 1494.13 115.269 1494.13 114.281Z" fill="url(#paint16_linear_29_614)"/>
<path d="M1494.66 105.311C1452.66 110.569 1435.31 129.322 1397.56 137.954C1373.58 143.51 1346.55 141.228 1321.04 143.907C1262.2 150.058 1201.66 146.685 1141.97 146.288C1105.75 146.09 1074.8 144.304 1040.11 137.358C991.818 127.635 945.394 112.157 894.889 106.699C838.602 100.647 780.615 109.676 723.987 106.699C700.86 105.509 705.452 103.028 689.977 96.9759C672.122 89.9314 654.607 92.4119 634.54 87.3517C598.83 78.4219 574.172 58.6773 541.012 47.2671C505.642 35.1623 468.23 42.703 430.649 47.3663C326.238 60.4632 220.466 69.7898 117.075 84.6727C89.6963 88.6414 62.148 92.7094 34.0895 94.5946C19.8052 95.4875 3.82041 94.1977 -9.95375 96.9758C-27.6391 100.647 -28.1492 106.6 -52.1265 105.211C-52.1265 106.203 -52.1265 106.699 -52.1265 107.791C-28.1492 109.18 -27.6391 103.227 -9.95375 99.5555C3.82041 96.7774 19.8052 98.0672 34.0895 97.1743C62.148 95.3883 89.5262 91.3203 117.075 87.4508C220.806 72.7664 326.408 63.2413 430.819 49.6483C468.571 44.7866 505.812 37.2459 541.352 49.3507C574.682 60.7609 599.34 80.5055 635.221 89.4353C655.287 94.4955 672.802 91.9158 690.317 99.0596C705.452 105.211 700.01 107.493 723.477 108.783C780.444 111.859 838.942 103.326 895.399 109.279C946.074 114.637 992.839 130.016 1041.3 139.74C1075.82 146.685 1106.94 148.471 1143.16 148.669C1202.51 148.967 1262.54 151.745 1321.55 146.586C1347.06 144.403 1373.92 146.586 1397.9 141.029C1435.65 132.199 1452.66 113.05 1495 107.791C1494.66 106.898 1494.66 106.303 1494.66 105.311Z" fill="url(#paint17_linear_29_614)"/>
<path d="M1494.13 96.87C1453.82 101.719 1434.95 118.542 1398.56 126.855C1374.07 132.496 1347.54 130.121 1322.03 134.376C1263.37 144.173 1204.02 139.72 1143.48 138.73C1103.35 138.037 1070.19 137.048 1031.76 128.438C986.183 118.245 940.099 102.115 891.125 97.6616C837.218 92.7136 782.632 102.412 728.556 100.432C707.809 99.6408 704.748 96.7709 689.784 90.6354C672.099 83.4113 654.413 85.2915 634.177 80.9372C598.806 73.2183 574.489 53.5252 542.86 42.3427C508.339 30.1705 476.37 35.0196 438.448 39.1759C329.275 51.0512 219.082 59.8586 111.95 76.4839C85.0816 80.6403 58.3836 84.7966 30.6652 86.5779C16.8911 87.4685 1.92657 86.281 -11.3374 88.9529C-28.8527 92.6144 -29.1928 98.4531 -53 97.0677C-53 98.0573 -53 98.5521 -53 99.6406C-29.0228 101.026 -28.5126 95.0885 -10.8273 91.4269C2.94687 88.656 18.9317 89.9425 33.216 89.0519C61.4445 87.1716 88.9928 82.9163 116.371 78.6611C219.082 63.0253 325.024 54.6137 429.435 42.6395C467.017 38.2853 504.428 30.8633 539.629 42.9364C572.619 54.3169 596.936 74.01 632.647 82.9164C652.883 87.9634 671.758 84.9946 689.614 92.6146C704.918 99.146 704.578 101.323 726.175 102.511C782.122 105.38 838.749 95.0886 894.356 101.125C944.351 106.568 990.094 122.204 1037.71 132.1C1072.23 139.225 1103.18 140.808 1139.23 141.204C1199.77 141.897 1261.16 146.548 1320.16 137.84C1345.67 134.079 1372.54 136.256 1396.86 130.813C1433.93 122.6 1452.8 104.787 1493.79 99.7399C1494.13 98.3544 1494.13 97.8596 1494.13 96.87Z" fill="url(#paint18_linear_29_614)"/>
<path d="M1493.96 88.6113C1455.03 92.9676 1434.13 108.215 1398.6 115.64C1373.28 120.987 1346.93 118.908 1321.6 125.145C1261.94 139.699 1203.13 133.561 1139.39 131.779C1099.28 130.69 1066.47 129.898 1028.23 120.987C983.865 110.591 939.162 93.9576 891.229 89.4032C838.707 84.3538 787.205 96.7298 734.683 94.9477C713.946 94.2546 706.977 90.8883 690.83 84.8488C671.793 77.7203 652.925 79.5024 632.019 74.948C597.004 67.2254 573.208 47.5228 541.932 36.3349C508.108 24.2559 475.813 28.9093 438.248 32.2755C328.445 41.9783 219.662 49.1069 113.088 67.1263C86.0624 71.6807 59.3765 76.136 31.5007 78.1162C17.7328 79.1063 2.60515 77.8192 -10.4828 80.5914C-27.9902 84.2547 -28.3301 90.0961 -52.1265 88.71C-52.1265 89.7001 -52.1265 90.1951 -52.1265 91.1852C-28.3301 92.5713 -27.9902 86.7299 -10.4828 83.0666C2.77513 80.3934 17.7328 81.5815 31.5007 80.6904C59.2065 78.8092 86.0624 74.4529 112.918 69.9975C219.492 52.3741 328.955 44.7505 438.418 34.3547C476.153 30.7904 508.278 26.0381 542.442 38.117C573.888 49.3049 597.854 69.1066 633.039 76.7302C653.775 81.2845 671.962 79.7004 690.83 86.631C706.807 92.4725 712.076 95.9377 732.983 96.6308C786.015 98.512 838.537 87.027 891.399 91.9775C939.501 96.5318 984.715 112.967 1029.59 123.363C1067.83 132.175 1100.81 133.066 1140.92 133.957C1203.47 135.442 1262.62 141.085 1321.94 128.016C1347.27 122.373 1373.78 124.551 1398.77 119.106C1434.47 111.383 1454.86 95.6408 1494.13 91.0865C1493.96 90.1954 1493.96 89.7004 1493.96 88.6113Z" fill="url(#paint19_linear_29_614)"/>
<path d="M1494.66 79.9248C1457.42 83.6866 1434.29 97.051 1399.6 103.387C1372.56 108.337 1347.4 106.852 1321.89 115.266C1294 124.473 1275.97 129.72 1243.15 129.225C1206.93 128.631 1171.22 126.156 1135.17 124.77C1095.21 123.186 1062.56 122.691 1024.47 113.286C981.615 102.595 938.252 85.4684 891.488 80.8156C840.303 75.6678 792.688 91.1112 741.843 89.7252C720.246 89.1312 709.873 85.0724 692.018 79.2317C671.272 72.4999 651.035 73.8859 629.269 69.0351C594.579 61.3134 571.451 41.6132 540.502 30.4266C507.342 18.4481 474.692 22.8039 437.621 25.0809C380.654 28.7437 323.517 33.1985 266.38 36.0694C212.813 38.6432 164.859 47.6519 113.674 57.0565C86.6354 62.0063 59.5972 67.055 31.5388 69.2329C17.7646 70.3219 2.63005 69.0349 -10.4639 71.8068C-27.9792 75.4697 -28.3193 81.3104 -52.1265 79.9245C-52.1265 80.9144 -52.1265 81.4094 -52.1265 82.3994C-28.3193 83.7853 -27.9792 77.9446 -10.4639 74.2817C2.8001 71.6088 17.9347 72.7968 31.5388 71.7078C59.5972 69.6289 86.4653 64.7781 113.503 59.9274C220.466 40.7222 326.918 34.9804 437.961 27.0608C475.202 24.3879 507.682 20.0321 541.182 32.0106C572.302 43.1971 595.599 62.9963 630.459 70.619C651.886 75.3708 671.612 73.9849 692.018 80.7166C709.363 86.5573 718.546 90.4182 739.972 91.1112C791.328 92.5961 840.132 78.1427 891.828 83.2905C938.932 87.9433 982.635 104.872 1026 115.464C1064.09 124.77 1096.74 125.364 1136.87 126.75C1172.58 128.037 1208.12 130.314 1243.83 130.809C1275.8 131.304 1294.51 126.651 1322.23 118.236C1347.74 110.514 1373.24 112.197 1399.77 107.05C1434.8 100.318 1457.08 86.3595 1495 82.4987C1494.66 81.4097 1494.66 80.9147 1494.66 79.9248Z" fill="url(#paint20_linear_29_614)"/>
<path d="M1494.83 71.9051C1458.78 74.8769 1433.1 86.5658 1398.75 91.6178C1368.48 96.0754 1345.86 95.7782 1319.85 106.873C1290.94 119.156 1275.29 125.496 1237.54 124.604C1199.62 123.713 1162.04 120.147 1124.12 118.364C1088.41 116.68 1058.14 115.788 1024.47 107.467C981.275 96.6697 940.803 79.3344 894.549 73.589C842.853 67.1502 800.34 86.7638 749.325 85.6741C726.368 85.1788 712.764 80.325 692.698 74.5796C669.911 67.9427 646.274 69.8248 623.657 64.0794C589.307 55.4613 566.69 35.3524 535.231 24.0597C502.751 12.4699 464.149 17.9181 428.098 19.2058C372.492 21.187 316.715 22.2766 261.108 24.9512C211.453 27.3286 166.049 37.2344 119.115 46.744C91.3968 52.2913 63.3383 58.2348 34.2596 60.9094C19.8052 62.1971 3.82041 60.9094 -9.95374 63.7821C-27.6391 67.4472 -28.1492 73.3908 -52.1265 72.0039C-52.1265 72.9945 -52.1265 73.4898 -52.1265 74.4804C-28.1492 75.8672 -27.6391 69.9237 -9.95374 66.2585C3.82041 63.3859 19.8052 64.7727 34.2596 63.4849C63.1683 60.9094 91.2267 55.164 118.945 49.7158C165.879 40.5034 211.113 31.0928 260.598 28.5173C316.375 25.6446 372.321 23.6635 428.268 21.2861C464.489 19.7011 503.091 13.9558 535.741 25.6447C567.37 36.9373 589.987 57.0462 624.678 65.6643C647.124 71.3106 670.081 69.3295 692.358 76.0655C711.744 81.9099 724.158 86.4666 746.774 87.061C798.13 88.3487 842.513 69.7257 894.549 76.1646C941.313 81.91 982.295 99.0471 1026 109.745C1059.84 117.967 1090.11 118.958 1125.99 120.444C1163.4 122.029 1200.64 125.397 1238.22 126.189C1275.29 126.982 1291.11 121.335 1320.19 109.845C1346.2 99.4434 1369.5 100.038 1398.92 95.481C1433.44 90.1319 1458.44 77.8486 1495 74.5797C1494.83 73.391 1494.83 72.8957 1494.83 71.9051Z" fill="url(#paint21_linear_29_614)"/>
<path d="M1494.66 63.3549C1460.14 65.5328 1432.43 74.7394 1398.93 78.6003C1366.29 82.3622 1344.35 82.9561 1319.19 97.1126C1292.15 112.259 1274.98 120.971 1235.36 119.783C1195.91 118.595 1156.98 114.14 1117.87 111.863C1082.33 109.784 1052.24 108.992 1018.91 100.082C977.591 88.9948 938.993 70.9775 893.935 65.1367C842.585 58.4049 807.558 81.8671 757.909 81.3721C733.254 81.1741 715.571 75.3333 693.636 69.7895C669.322 63.6517 643.307 64.9387 619.672 58.9989C585.666 50.3862 563.902 30.2899 532.956 19.0043C501.5 7.52075 462.562 12.0746 427.195 12.1736C372.615 12.3715 317.184 10.5896 262.774 12.6685C212.444 14.5494 166.705 26.231 119.947 36.4276C92.2312 42.4664 63.8358 49.0991 34.4201 52.069C19.9674 53.554 3.9843 52.267 -9.95838 55.1379C-27.6418 58.8008 -28.1519 64.7406 -52.1265 63.3546C-52.1265 64.3446 -52.1265 64.8395 -52.1265 65.8295C-28.1519 67.2155 -27.6418 61.2757 -9.95838 57.6128C3.81426 54.7419 19.9673 56.0289 34.4201 54.6429C63.6657 51.772 92.0612 45.3373 119.776 39.4965C166.535 29.4979 212.274 18.4103 262.264 16.3314C317.014 14.0545 372.615 14.9454 427.535 14.2525C463.072 13.8565 502.01 9.00569 533.806 20.4893C564.922 31.7749 586.856 51.8711 621.032 60.4838C644.327 66.3246 669.662 64.9387 693.466 71.1754C714.89 76.8182 731.214 82.263 755.528 82.56C805.518 83.253 842.925 60.8798 894.275 67.5126C939.673 73.3534 978.781 91.1728 1020.78 102.161C1054.11 110.873 1084.2 111.665 1119.91 113.645C1158.68 115.724 1197.27 119.981 1236.21 121.07C1274.98 122.159 1292.32 114.437 1319.7 99.8845C1344.86 86.421 1367.48 86.322 1399.27 82.3622C1432.94 78.1053 1459.97 68.2057 1495 65.8298C1494.66 64.9388 1494.66 64.3448 1494.66 63.3549Z" fill="url(#paint22_linear_29_614)"/>
<path d="M1494.83 54.7843C1461.5 56.1725 1432.08 62.7165 1399.43 65.3936C1363.72 68.269 1343.48 70.9461 1318.83 87.3062C1292.81 104.459 1275.63 116.754 1233.29 115.168C1192.31 113.681 1152.01 108.227 1111.36 105.451C1075.82 102.972 1045.89 102.278 1013.24 92.8586C973.623 81.4561 937.232 62.7164 893.529 56.6681C841.833 49.43 815.985 77.0934 767.18 77.3909C740.652 77.5892 718.716 70.7477 694.739 65.2943C669.061 59.5435 640.152 60.4358 615.665 54.1893C582.165 45.563 561.248 25.4351 530.809 14.1318C500.37 2.82846 460.918 6.39793 426.398 5.30725C373.172 3.62166 317.905 -1.13765 264.509 0.250467C213.834 1.53944 167.24 15.1233 120.816 26.1291C92.9273 32.6732 64.1886 40.0104 34.5997 43.2824C20.1453 44.8689 3.99046 43.7782 -9.95374 46.6536C-27.6391 50.3222 -28.1492 56.2713 -52.1265 54.8832C-52.1265 55.8747 -52.1265 56.3705 -52.1265 57.362C-28.1492 58.7501 -27.6391 52.801 -9.95374 49.1324C3.99046 46.257 19.9753 47.4468 34.4296 45.8604C64.0186 42.5884 92.5872 35.5486 120.476 29.1037C167.07 18.2961 213.324 5.30721 263.999 3.81993C317.735 2.23351 373.002 6.10045 426.738 7.19114C461.598 7.98437 500.88 4.11744 531.66 15.4208C562.269 26.7241 583.525 46.852 617.025 55.4782C641.172 61.7248 669.231 60.6342 694.569 66.4841C718.036 71.9375 738.612 78.4815 764.63 78.3824C813.604 78.2833 842.343 51.9088 893.869 58.9486C937.912 64.9969 974.983 83.4392 1015.12 94.8417C1048.11 104.162 1078.03 104.856 1113.57 107.236C1153.88 109.913 1193.67 115.069 1234.14 116.457C1275.63 117.944 1292.81 106.74 1319.17 90.0824C1343.99 74.4164 1364.74 72.4334 1399.6 69.2605C1432.42 66.1868 1461.33 58.8496 1495 57.2631C1494.83 56.2716 1494.83 55.7758 1494.83 54.7843Z" fill="url(#paint23_linear_29_614)"/>
</g>
<defs>
<linearGradient id="paint0_linear_29_614" x1="1470.01" y1="185.054" x2="1348.59" y2="667.638" gradientUnits="userSpaceOnUse">
<stop stop-color="#36FF93"/>
<stop offset="1" stop-color="#ECB5ED"/>
</linearGradient>
<linearGradient id="paint1_linear_29_614" x1="1469.15" y1="176.654" x2="1352.49" y2="650.126" gradientUnits="userSpaceOnUse">
<stop stop-color="#36FF93"/>
<stop offset="1" stop-color="#ECB5ED"/>
</linearGradient>
<linearGradient id="paint2_linear_29_614" x1="1469.15" y1="169.17" x2="1359.11" y2="629.813" gradientUnits="userSpaceOnUse">
<stop stop-color="#36FF93"/>
<stop offset="1" stop-color="#ECB5ED"/>
</linearGradient>
<linearGradient id="paint3_linear_29_614" x1="1469.15" y1="161.126" x2="1366.47" y2="606.939" gradientUnits="userSpaceOnUse">
<stop stop-color="#36FF93"/>
<stop offset="1" stop-color="#ECB5ED"/>
</linearGradient>
<linearGradient id="paint4_linear_29_614" x1="1469.15" y1="153.541" x2="1374.5" y2="582.463" gradientUnits="userSpaceOnUse">
<stop stop-color="#36FF93"/>
<stop offset="1" stop-color="#ECB5ED"/>
</linearGradient>
<linearGradient id="paint5_linear_29_614" x1="1469.15" y1="145.396" x2="1383.09" y2="555.3" gradientUnits="userSpaceOnUse">
<stop stop-color="#36FF93"/>
<stop offset="1" stop-color="#ECB5ED"/>
</linearGradient>
<linearGradient id="paint6_linear_29_614" x1="1469.14" y1="137.3" x2="1382.27" y2="549.138" gradientUnits="userSpaceOnUse">
<stop stop-color="#36FF93"/>
<stop offset="1" stop-color="#ECB5ED"/>
</linearGradient>
<linearGradient id="paint7_linear_29_614" x1="1469.14" y1="129.816" x2="1379.73" y2="547.379" gradientUnits="userSpaceOnUse">
<stop stop-color="#36FF93"/>
<stop offset="1" stop-color="#ECB5ED"/>
</linearGradient>
<linearGradient id="paint8_linear_29_614" x1="1469.15" y1="122.739" x2="1378.84" y2="542.185" gradientUnits="userSpaceOnUse">
<stop stop-color="#36FF93"/>
<stop offset="1" stop-color="#ECB5ED"/>
</linearGradient>
<linearGradient id="paint9_linear_29_614" x1="1469.15" y1="114.695" x2="1377.11" y2="537.939" gradientUnits="userSpaceOnUse">
<stop stop-color="#36FF93"/>
<stop offset="1" stop-color="#ECB5ED"/>
</linearGradient>
<linearGradient id="paint10_linear_29_614" x1="1470.01" y1="107.618" x2="1377.15" y2="532.78" gradientUnits="userSpaceOnUse">
<stop stop-color="#36FF93"/>
<stop offset="1" stop-color="#ECB5ED"/>
</linearGradient>
<linearGradient id="paint11_linear_29_614" x1="1469.14" y1="99.5742" x2="1374.53" y2="528.519" gradientUnits="userSpaceOnUse">
<stop stop-color="#36FF93"/>
<stop offset="1" stop-color="#ECB5ED"/>
</linearGradient>
<linearGradient id="paint12_linear_29_614" x1="1470.01" y1="91.988" x2="1374.53" y2="522.821" gradientUnits="userSpaceOnUse">
<stop stop-color="#36FF93"/>
<stop offset="1" stop-color="#ECB5ED"/>
</linearGradient>
<linearGradient id="paint13_linear_29_614" x1="1469.15" y1="83.9436" x2="1371.85" y2="518.52" gradientUnits="userSpaceOnUse">
<stop stop-color="#36FF93"/>
<stop offset="1" stop-color="#ECB5ED"/>
</linearGradient>
<linearGradient id="paint14_linear_29_614" x1="1469.15" y1="75.9506" x2="1369.18" y2="516.158" gradientUnits="userSpaceOnUse">
<stop stop-color="#36FF93"/>
<stop offset="1" stop-color="#ECB5ED"/>
</linearGradient>
<linearGradient id="paint15_linear_29_614" x1="1469.14" y1="67.3464" x2="1368.32" y2="509.45" gradientUnits="userSpaceOnUse">
<stop stop-color="#36FF93"/>
<stop offset="1" stop-color="#ECB5ED"/>
</linearGradient>
<linearGradient id="paint16_linear_29_614" x1="1469.15" y1="59.7092" x2="1368.28" y2="501.788" gradientUnits="userSpaceOnUse">
<stop stop-color="#36FF93"/>
<stop offset="1" stop-color="#ECB5ED"/>
</linearGradient>
<linearGradient id="paint17_linear_29_614" x1="1470.01" y1="51.6142" x2="1368.29" y2="495.586" gradientUnits="userSpaceOnUse">
<stop stop-color="#36FF93"/>
<stop offset="1" stop-color="#ECB5ED"/>
</linearGradient>
<linearGradient id="paint18_linear_29_614" x1="1469.14" y1="45.4538" x2="1368.32" y2="487.557" gradientUnits="userSpaceOnUse">
<stop stop-color="#36FF93"/>
<stop offset="1" stop-color="#ECB5ED"/>
</linearGradient>
<linearGradient id="paint19_linear_29_614" x1="1469.15" y1="39.2939" x2="1369.18" y2="479.501" gradientUnits="userSpaceOnUse">
<stop stop-color="#36FF93"/>
<stop offset="1" stop-color="#ECB5ED"/>
</linearGradient>
<linearGradient id="paint20_linear_29_614" x1="1470.01" y1="33.235" x2="1369.19" y2="475.338" gradientUnits="userSpaceOnUse">
<stop stop-color="#36FF93"/>
<stop offset="1" stop-color="#ECB5ED"/>
</linearGradient>
<linearGradient id="paint21_linear_29_614" x1="1470.01" y1="27.7365" x2="1367.38" y2="473.575" gradientUnits="userSpaceOnUse">
<stop stop-color="#36FF93"/>
<stop offset="1" stop-color="#ECB5ED"/>
</linearGradient>
<linearGradient id="paint22_linear_29_614" x1="1470.01" y1="22.1869" x2="1366.48" y2="469.889" gradientUnits="userSpaceOnUse">
<stop stop-color="#36FF93"/>
<stop offset="1" stop-color="#ECB5ED"/>
</linearGradient>
<linearGradient id="paint23_linear_29_614" x1="1470.01" y1="11.6475" x2="1354.37" y2="483.326" gradientUnits="userSpaceOnUse">
<stop stop-color="#36FF93"/>
<stop offset="1" stop-color="#ECB5ED"/>
</linearGradient>
</defs>
</svg>
