<svg width="1440" height="95" viewBox="0 0 1440 95" fill="none" xmlns="http://www.w3.org/2000/svg">
<g opacity="0.5">
<path d="M1461 74.0215C1392.51 72.6913 1314.9 52.2636 1253.08 76.3968C1226.07 86.9432 1202.65 95.9694 1168.16 92.4539C1133.02 88.8435 1104.22 74.2115 1071.52 66.9905C1018.64 55.3039 968.86 72.2162 916.311 74.4965C864.087 76.7768 818.859 60.6246 767.448 58.6293C707.578 56.254 640.875 40.8619 581.167 47.6078C555.462 50.5532 533.661 59.8645 508.607 63.855C482.251 68.0355 454.756 66.3253 428.075 64.14C395.537 61.4797 362.836 56.2539 329.81 56.3489C289.137 56.444 253.182 66.8954 216.089 75.8265C174.602 85.8029 138.973 92.8338 93.9076 87.6081C55.3498 83.1425 20.5339 75.3514 -19 74.0213C-19 75.1614 -19 75.7315 -19 76.8716C20.2085 77.9168 55.3498 85.2328 93.7449 89.2233C137.834 93.879 173.138 87.7981 214.136 78.4869C250.579 70.2208 285.72 60.7195 325.58 60.7195C358.443 60.7195 390.981 65.3752 423.52 67.8455C450.201 69.8408 477.858 71.456 504.214 67.6555C529.594 64.045 552.208 55.3038 578.076 52.7385C638.109 46.6577 703.023 60.8146 763.218 62.8099C814.791 64.5201 861.158 79.2471 913.382 77.2519C966.094 75.1616 1017.02 59.5795 1069.89 70.2209C1102.59 76.7768 1131.71 90.3637 1166.37 93.4991C1200.37 96.5395 1224.61 88.5584 1252.43 78.8671C1315.39 56.7292 1392.34 75.6367 1460.84 76.7769C1461 75.7318 1461 75.1617 1461 74.0215Z" fill="url(#paint0_linear_33_18)"/>
<path d="M1461 66.2396C1392.83 64.2513 1312.46 39.5396 1255.03 69.2693C1230.79 81.7672 1208.99 93.8863 1173.69 89.1523C1137.41 84.2289 1109.26 66.7129 1076.24 57.7182C1023.04 43.1374 977.32 63.7778 924.771 66.8075C872.872 69.648 830.572 49.6703 779.976 46.7352C721.081 43.4214 648.684 24.2958 590.115 33.1011C564.898 36.8884 545.538 48.0607 521.297 53.1734C495.266 58.6649 467.934 56.3926 441.253 53.7415C408.715 50.4277 375.363 43.8947 342.011 44.0841C298.736 44.2734 260.178 57.9074 221.783 68.5117C178.995 80.3468 142.227 90.1936 94.5583 83.2819C55.6752 77.6957 21.3474 68.3223 -19 66.334C-19 67.4701 -19 68.0382 -19 69.1744C21.022 70.8787 55.6752 79.684 94.3956 84.8914C141.088 91.1404 177.368 82.4297 219.83 71.2574C257.575 61.2213 295.156 48.7234 337.619 48.5341C370.808 48.4394 403.997 54.499 436.535 57.5287C463.216 60.0851 490.548 62.0734 516.741 57.0554C541.308 52.3213 561.482 41.8118 587.024 38.3086C646.081 30.2607 716.201 48.0607 775.583 50.9958C826.342 53.6469 869.618 72.299 921.679 69.5533C974.229 66.8076 1021.57 47.5874 1074.45 61.032C1107.47 69.4586 1135.78 85.9331 1171.57 90.2884C1206.55 94.5491 1229 83.6608 1254.22 71.8257C1313.28 44.0842 1392.83 67.281 1460.84 68.9853C1461 67.9438 1461 67.3757 1461 66.2396Z" fill="url(#paint1_linear_33_18)"/>
<path d="M1461 58.095C1392.67 55.3516 1309.86 26.31 1256.82 61.8789C1235.84 75.974 1215.66 91.8664 1179.22 85.7176C1141.8 79.3795 1114.47 58.9463 1081.28 47.9729C1027.43 30.2831 986.43 54.784 933.556 58.5679C881.657 62.2572 842.774 38.1347 792.991 34.3508C758.663 31.7966 726.613 27.8235 692.773 22.9044C663.814 18.6475 628.998 12.3094 599.226 17.8907C574.334 22.6206 557.577 35.6751 534.149 41.9185C508.444 48.7296 481.438 45.8917 454.756 42.6753C422.218 38.7968 388.053 30.8506 354.539 31.0397C308.822 31.3235 267.011 48.3512 227.64 60.5543C184.038 74.1764 145.155 87.2309 95.2091 78.5279C56.0006 71.7168 22.1608 60.8381 -19 58.0947C-19 59.2299 -19 59.7975 -19 60.9327C21.9981 63.3922 55.8379 73.798 95.0464 80.1361C144.179 88.1769 182.249 76.2576 225.687 63.3922C264.57 51.7567 305.243 35.9588 350.146 35.675C383.66 35.4859 417.5 42.9591 450.038 46.6484C476.719 49.6756 503.889 52.3243 529.594 45.9863C553.347 40.2158 570.918 27.7289 595.972 23.3773C625.744 18.1745 659.91 24.0395 689.031 28.1073C722.383 32.7426 754.27 36.5265 788.273 38.8915C838.382 42.297 878.404 65.0005 930.465 61.595C983.177 58.0949 1025.8 34.9184 1079.49 51.5676C1112.68 61.8788 1140.17 81.2714 1177.27 87.0419C1213.38 92.7178 1234.05 78.2443 1256.17 64.6222C1310.84 31.1345 1392.83 58.568 1461 61.0275C1461 59.7977 1461 59.2302 1461 58.095Z" fill="url(#paint2_linear_33_18)"/>
<path d="M1461 49.8637C1417.24 47.594 1377.54 37.9478 1334.43 34.165C1297.98 31.0441 1279.11 37.0021 1258.78 54.403C1241.04 69.6289 1222.49 89.7724 1184.75 82.2068C1146.03 74.3574 1119.51 50.9985 1086.16 38.2314C1031.17 17.2368 995.541 45.7971 942.341 50.431C889.629 55.065 855.952 25.6535 805.843 21.9653C770.377 19.3173 737.676 14.2105 703.185 8.53624C674.389 3.8077 638.109 -4.04166 608.499 2.76741C583.77 8.44164 569.941 23.3838 547.327 30.7603C522.11 38.9879 495.266 35.4888 468.585 31.8005C436.209 27.2612 401.068 17.8987 367.391 18.1824C319.235 18.5606 274.332 39.177 233.822 52.8897C189.244 67.8319 147.921 84.4763 96.0225 73.8844C56.1632 65.8459 23.137 53.4571 -19 49.8634C-19 50.9983 -19 51.5657 -19 52.7006C22.8116 55.916 56.1632 67.8318 95.6972 75.4921C146.945 85.3274 187.455 70.007 231.544 55.5377C271.566 42.3924 315.493 23.0055 362.673 22.6272C396.35 22.3435 431.166 31.2331 463.542 35.4888C490.223 38.9879 517.23 42.2979 542.609 34.5431C565.549 27.5449 580.354 13.2647 605.083 7.96879C634.692 1.538 670.485 8.91451 699.281 13.4539C733.609 18.939 766.147 23.1947 801.125 26.2209C850.583 30.5712 887.189 57.4292 939.087 53.1736C992.125 48.8233 1029.71 21.6816 1084.21 41.5414C1117.56 53.741 1144.4 76.0597 1182.64 83.3416C1219.89 90.4344 1238.93 71.804 1257.96 56.9564C1279.27 40.2175 1298.8 34.8269 1334.59 37.7586C1377.54 41.2578 1417.24 50.6203 1460.84 52.6062C1461 51.566 1461 50.9985 1461 49.8637Z" fill="url(#paint3_linear_33_18)"/>
</g>
<defs>
<linearGradient id="paint0_linear_33_18" x1="1817.5" y1="33.4239" x2="1787.83" y2="291.269" gradientUnits="userSpaceOnUse">
<stop stop-color="#36FF93"/>
<stop offset="1" stop-color="#FEAEF6"/>
</linearGradient>
<linearGradient id="paint1_linear_33_18" x1="1817.5" y1="15.1639" x2="1771.3" y2="335.739" gradientUnits="userSpaceOnUse">
<stop stop-color="#36FF93"/>
<stop offset="1" stop-color="#FEAEF6"/>
</linearGradient>
<linearGradient id="paint2_linear_33_18" x1="1817.5" y1="-3.09613" x2="1751.39" y2="378.664" gradientUnits="userSpaceOnUse">
<stop stop-color="#36FF93"/>
<stop offset="1" stop-color="#FEAEF6"/>
</linearGradient>
<linearGradient id="paint3_linear_33_18" x1="1817.5" y1="-21.8429" x2="1728.29" y2="419.299" gradientUnits="userSpaceOnUse">
<stop stop-color="#36FF93"/>
<stop offset="1" stop-color="#FEAEF6"/>
</linearGradient>
</defs>
</svg>
